<?xml version="1.0" encoding="utf-8"?>
<!-- Generator: Adobe Illustrator 16.0.0, SVG Export Plug-In . SVG Version: 6.00 Build 0)  -->
<!DOCTYPE svg PUBLIC "-//W3C//DTD SVG 1.1//EN" "http://www.w3.org/Graphics/SVG/1.1/DTD/svg11.dtd">
<svg version="1.1" id="Layer_1" xmlns="http://www.w3.org/2000/svg" xmlns:xlink="http://www.w3.org/1999/xlink" x="0px" y="0px"
	 width="120.8px" height="120.8px" viewBox="0 0 120.8 120.8" enable-background="new 0 0 120.8 120.8" xml:space="preserve">
<circle fill="#5BBCC9" cx="60.482" cy="60.4" r="60.4"/>
<circle fill="#5BBCC9" cx="14.252" cy="14.252" r="14.252"/>
<g>
	<defs>
		<circle id="SVGID_1_" cx="60.399" cy="60.4" r="60.4"/>
	</defs>
	<clipPath id="SVGID_2_">
		<use xlink:href="#SVGID_1_"  overflow="visible"/>
	</clipPath>
	<g opacity="0.1" clip-path="url(#SVGID_2_)">
		<path d="M63.165,94.601c0,1.479-1.202,2.684-2.682,2.684S57.8,96.08,57.8,94.601c0-1.48,1.204-2.682,2.683-2.682
			S63.165,93.121,63.165,94.601z M99.377,83.871h-2.684V28.881h2.684v-8.047H21.588v8.047h2.682v54.989h-2.682
			c-0.741,0-1.342,0.6-1.342,1.342s0.602,1.34,1.342,1.34h37.554v2.684c0,0.063,0.027,0.118,0.036,0.179
			c-2.327,0.587-4.06,2.68-4.06,5.187c0,2.957,2.405,5.365,5.365,5.365c2.957,0,5.364-2.408,5.364-5.365
			c0-2.507-1.734-4.6-4.061-5.187c0.009-0.061,0.036-0.115,0.036-0.179v-2.684h37.555c0.74,0,1.342-0.598,1.342-1.34
			S100.118,83.871,99.377,83.871z"/>
		<path opacity="0.9894" d="M62.78,95.519c0,1.479-1.202,2.684-2.682,2.684c-1.479,0-2.683-1.205-2.683-2.684
			c0-1.48,1.204-2.682,2.683-2.682C61.578,92.837,62.78,94.039,62.78,95.519z M98.993,84.789h-2.685V29.8h2.685v-8.047h-77.79V29.8
			h2.682v54.989h-2.682c-0.74,0-1.342,0.6-1.342,1.342s0.602,1.34,1.342,1.34h37.554v2.684c0,0.063,0.027,0.118,0.036,0.179
			c-2.327,0.587-4.06,2.68-4.06,5.187c0,2.957,2.405,5.365,5.365,5.365c2.958,0,5.364-2.408,5.364-5.365
			c0-2.507-1.733-4.6-4.06-5.187c0.008-0.061,0.036-0.115,0.036-0.179V87.47h37.555c0.74,0,1.341-0.598,1.341-1.34
			S99.733,84.789,98.993,84.789z"/>
		<path opacity="0.9787" d="M62.394,96.437c0,1.479-1.202,2.685-2.682,2.685s-2.683-1.206-2.683-2.685
			c0-1.479,1.204-2.682,2.683-2.682S62.394,94.958,62.394,96.437z M98.607,85.707h-2.684V30.718h2.684v-8.047H20.818v8.047H23.5
			v54.989h-2.682c-0.741,0-1.342,0.601-1.342,1.343c0,0.741,0.602,1.339,1.342,1.339h37.554v2.684c0,0.064,0.027,0.118,0.036,0.179
			c-2.327,0.588-4.06,2.681-4.06,5.187c0,2.958,2.405,5.366,5.365,5.366c2.957,0,5.364-2.408,5.364-5.366
			c0-2.506-1.734-4.599-4.061-5.187c0.009-0.061,0.036-0.114,0.036-0.179v-2.684h37.555c0.74,0,1.342-0.598,1.342-1.339
			C99.949,86.307,99.347,85.707,98.607,85.707z"/>
		<path opacity="0.9681" d="M62.009,97.356c0,1.479-1.202,2.684-2.682,2.684c-1.479,0-2.683-1.205-2.683-2.684
			c0-1.48,1.204-2.682,2.683-2.682C60.807,94.674,62.009,95.875,62.009,97.356z M98.222,86.625h-2.685V31.636h2.685v-8.047h-77.79
			v8.047h2.682v54.989h-2.682c-0.741,0-1.342,0.6-1.342,1.342s0.602,1.34,1.342,1.34h37.554v2.684c0,0.063,0.027,0.118,0.037,0.179
			c-2.327,0.587-4.061,2.68-4.061,5.187c0,2.957,2.405,5.365,5.365,5.365c2.958,0,5.365-2.408,5.365-5.365
			c0-2.507-1.734-4.6-4.061-5.187c0.009-0.061,0.036-0.115,0.036-0.179v-2.684h37.555c0.74,0,1.341-0.598,1.341-1.34
			S98.962,86.625,98.222,86.625z"/>
		<path opacity="0.9574" d="M61.624,98.274c0,1.479-1.202,2.684-2.682,2.684s-2.683-1.205-2.683-2.684
			c0-1.48,1.204-2.682,2.683-2.682S61.624,96.793,61.624,98.274z M97.836,87.543h-2.684V32.554h2.684v-8.047H20.047v8.047h2.682
			v54.989h-2.682c-0.74,0-1.342,0.6-1.342,1.342s0.602,1.34,1.342,1.34h37.554v2.684c0,0.063,0.027,0.118,0.036,0.179
			c-2.327,0.587-4.06,2.68-4.06,5.187c0,2.957,2.405,5.365,5.365,5.365c2.957,0,5.364-2.408,5.364-5.365
			c0-2.507-1.734-4.6-4.061-5.187c0.009-0.061,0.036-0.115,0.036-0.179v-2.684h37.555c0.74,0,1.342-0.598,1.342-1.34
			S98.577,87.543,97.836,87.543z"/>
		<path opacity="0.9468" d="M61.238,99.192c0,1.479-1.202,2.684-2.681,2.684c-1.479,0-2.683-1.205-2.683-2.684
			c0-1.48,1.204-2.682,2.683-2.682C60.036,96.51,61.238,97.711,61.238,99.192z M97.451,88.461h-2.683V33.473h2.683v-8.047H19.662
			v8.047h2.682v54.989h-2.682c-0.741,0-1.342,0.6-1.342,1.342s0.602,1.341,1.342,1.341h37.554v2.683
			c0,0.063,0.028,0.118,0.037,0.179c-2.327,0.587-4.061,2.68-4.061,5.187c0,2.958,2.405,5.365,5.365,5.365
			c2.957,0,5.365-2.407,5.365-5.365c0-2.507-1.734-4.6-4.061-5.187c0.009-0.061,0.036-0.115,0.036-0.179v-2.683h37.554
			c0.741,0,1.342-0.599,1.342-1.341S98.192,88.461,97.451,88.461z"/>
		<path opacity="0.9362" d="M60.853,100.11c0,1.479-1.202,2.685-2.681,2.685c-1.48,0-2.684-1.206-2.684-2.685
			c0-1.479,1.204-2.681,2.684-2.681C59.651,97.429,60.853,98.63,60.853,100.11z M97.066,89.379h-2.684V34.391h2.684v-8.047H19.277
			v8.047h2.682v54.988h-2.682c-0.741,0-1.342,0.601-1.342,1.343s0.602,1.34,1.342,1.34h37.554v2.684
			c0,0.063,0.027,0.117,0.036,0.178c-2.327,0.588-4.06,2.68-4.06,5.187c0,2.958,2.405,5.366,5.365,5.366
			c2.957,0,5.364-2.408,5.364-5.366c0-2.507-1.734-4.599-4.061-5.187c0.009-0.061,0.036-0.114,0.036-0.178v-2.684h37.555
			c0.74,0,1.342-0.598,1.342-1.34S97.806,89.379,97.066,89.379z"/>
		<path opacity="0.9255" d="M60.468,101.029c0,1.479-1.203,2.684-2.682,2.684c-1.48,0-2.684-1.205-2.684-2.684
			c0-1.48,1.204-2.682,2.684-2.682C59.266,98.347,60.468,99.548,60.468,101.029z M96.681,90.298h-2.684v-54.99h2.684v-8.047h-77.79
			v8.047h2.682v54.99h-2.682c-0.741,0-1.342,0.6-1.342,1.342s0.602,1.34,1.342,1.34h37.554v2.684c0,0.063,0.027,0.118,0.037,0.179
			c-2.327,0.587-4.061,2.68-4.061,5.187c0,2.957,2.405,5.365,5.365,5.365c2.957,0,5.363-2.408,5.363-5.365
			c0-2.507-1.733-4.6-4.06-5.187c0.009-0.061,0.036-0.115,0.036-0.179V92.98h37.555c0.74,0,1.342-0.598,1.342-1.34
			S97.421,90.298,96.681,90.298z"/>
		<path opacity="0.9149" d="M60.083,101.947c0,1.479-1.202,2.684-2.682,2.684c-1.479,0-2.683-1.205-2.683-2.684
			c0-1.48,1.204-2.682,2.683-2.682C58.88,99.265,60.083,100.466,60.083,101.947z M96.295,91.216h-2.684V36.227h2.684V28.18H18.506
			v8.047h2.682v54.989h-2.682c-0.741,0-1.342,0.6-1.342,1.342s0.602,1.34,1.342,1.34H56.06v2.684c0,0.063,0.027,0.118,0.036,0.179
			c-2.326,0.587-4.06,2.68-4.06,5.187c0,2.957,2.406,5.365,5.365,5.365c2.957,0,5.364-2.408,5.364-5.365
			c0-2.507-1.734-4.6-4.061-5.187c0.009-0.061,0.036-0.115,0.036-0.179v-2.684h37.555c0.74,0,1.342-0.598,1.342-1.34
			S97.036,91.216,96.295,91.216z"/>
		<path opacity="0.9043" d="M59.697,102.865c0,1.479-1.202,2.684-2.682,2.684c-1.479,0-2.683-1.205-2.683-2.684
			c0-1.48,1.204-2.681,2.683-2.681C58.496,100.184,59.697,101.384,59.697,102.865z M95.911,92.134h-2.685V37.145h2.685v-8.047
			h-77.79v8.047h2.682v54.989h-2.682c-0.741,0-1.342,0.6-1.342,1.342s0.601,1.34,1.342,1.34h37.554V97.5
			c0,0.063,0.027,0.119,0.036,0.179c-2.327,0.587-4.061,2.68-4.061,5.187c0,2.957,2.405,5.365,5.365,5.365
			c2.957,0,5.365-2.408,5.365-5.365c0-2.507-1.735-4.6-4.061-5.187c0.009-0.06,0.036-0.115,0.036-0.179v-2.684h37.555
			c0.74,0,1.342-0.598,1.342-1.34S96.651,92.134,95.911,92.134z"/>
		<path opacity="0.8936" d="M59.313,103.783c0,1.479-1.202,2.685-2.682,2.685c-1.479,0-2.683-1.206-2.683-2.685
			c0-1.479,1.204-2.681,2.683-2.681C58.11,101.102,59.313,102.303,59.313,103.783z M95.525,93.052h-2.684V38.063h2.684v-8.047
			H17.736v8.047h2.682v54.989h-2.682c-0.741,0-1.342,0.601-1.342,1.343c0,0.741,0.602,1.34,1.342,1.34H55.29v2.683
			c0,0.064,0.027,0.119,0.036,0.179c-2.327,0.588-4.06,2.681-4.06,5.187c0,2.957,2.405,5.366,5.364,5.366
			c2.958,0,5.364-2.409,5.364-5.366c0-2.506-1.734-4.599-4.061-5.187c0.009-0.06,0.036-0.114,0.036-0.179v-2.683h37.555
			c0.74,0,1.342-0.599,1.342-1.34C96.867,93.653,96.265,93.052,95.525,93.052z"/>
		<path opacity="0.883" d="M58.927,104.702c0,1.479-1.202,2.684-2.682,2.684c-1.479,0-2.683-1.205-2.683-2.684
			c0-1.48,1.204-2.682,2.683-2.682C57.725,102.02,58.927,103.221,58.927,104.702z M95.139,93.971h-2.683V38.982h2.683v-8.047H17.351
			v8.047h2.682v54.989h-2.682c-0.741,0-1.342,0.6-1.342,1.342s0.602,1.34,1.342,1.34h37.554v2.684c0,0.063,0.028,0.118,0.037,0.179
			c-2.327,0.587-4.06,2.68-4.06,5.187c0,2.957,2.405,5.365,5.364,5.365c2.957,0,5.364-2.408,5.364-5.365
			c0-2.507-1.734-4.6-4.06-5.187c0.009-0.061,0.036-0.115,0.036-0.179v-2.684h37.554c0.741,0,1.343-0.598,1.343-1.34
			S95.88,93.971,95.139,93.971z"/>
		<path opacity="0.8723" d="M58.542,105.62c0,1.479-1.202,2.684-2.682,2.684s-2.683-1.205-2.683-2.684
			c0-1.48,1.203-2.682,2.683-2.682S58.542,104.139,58.542,105.62z M94.754,94.889h-2.684V39.9h2.684v-8.047H16.965V39.9h2.682
			v54.989h-2.682c-0.74,0-1.342,0.6-1.342,1.342s0.602,1.34,1.342,1.34H54.52v2.684c0,0.063,0.027,0.118,0.036,0.179
			c-2.327,0.587-4.06,2.68-4.06,5.187c0,2.957,2.405,5.365,5.364,5.365c2.957,0,5.364-2.408,5.364-5.365
			c0-2.507-1.734-4.6-4.061-5.187c0.009-0.061,0.036-0.115,0.036-0.179v-2.684h37.555c0.74,0,1.342-0.598,1.342-1.34
			S95.495,94.889,94.754,94.889z"/>
		<path opacity="0.8617" d="M58.157,106.539c0,1.478-1.203,2.684-2.682,2.684s-2.683-1.206-2.683-2.684
			c0-1.481,1.204-2.683,2.683-2.683S58.157,105.057,58.157,106.539z M94.37,95.807h-2.684V40.818h2.684v-8.047H16.58v8.047h2.682
			v54.989H16.58c-0.741,0-1.342,0.6-1.342,1.342c0,0.743,0.601,1.34,1.342,1.34h37.554v2.684c0,0.063,0.027,0.118,0.036,0.179
			c-2.327,0.587-4.06,2.68-4.06,5.188c0,2.956,2.405,5.364,5.364,5.364c2.958,0,5.365-2.408,5.365-5.364
			c0-2.508-1.735-4.601-4.061-5.188c0.008-0.061,0.036-0.115,0.036-0.179v-2.684H94.37c0.739,0,1.342-0.597,1.342-1.34
			C95.711,96.407,95.109,95.807,94.37,95.807z"/>
		<path opacity="0.8511" d="M57.771,107.456c0,1.479-1.202,2.685-2.682,2.685s-2.683-1.206-2.683-2.685
			c0-1.479,1.203-2.682,2.683-2.682S57.771,105.976,57.771,107.456z M93.984,96.725H91.3V41.736h2.684v-8.047H16.195v8.047h2.682
			v54.989h-2.682c-0.74,0-1.342,0.601-1.342,1.343s0.602,1.339,1.342,1.339h37.554v2.685c0,0.063,0.027,0.118,0.036,0.178
			c-2.326,0.587-4.06,2.68-4.06,5.187c0,2.957,2.405,5.366,5.364,5.366c2.957,0,5.364-2.409,5.364-5.366
			c0-2.507-1.734-4.6-4.06-5.187c0.008-0.06,0.036-0.114,0.036-0.178v-2.685h37.554c0.74,0,1.342-0.597,1.342-1.339
			S94.724,96.725,93.984,96.725z"/>
		<path opacity="0.8404" d="M57.386,108.375c0,1.479-1.202,2.684-2.682,2.684c-1.479,0-2.683-1.205-2.683-2.684
			c0-1.48,1.204-2.682,2.683-2.682C56.184,105.693,57.386,106.894,57.386,108.375z M93.599,97.644h-2.684V42.655h2.684v-8.047H15.81
			v8.047h2.682v54.989H15.81c-0.741,0-1.342,0.6-1.342,1.342s0.602,1.34,1.342,1.34h37.554v2.684c0,0.063,0.028,0.118,0.037,0.179
			c-2.327,0.587-4.06,2.68-4.06,5.187c0,2.957,2.405,5.365,5.364,5.365c2.958,0,5.364-2.408,5.364-5.365
			c0-2.507-1.734-4.6-4.061-5.187c0.009-0.061,0.036-0.115,0.036-0.179v-2.684h37.555c0.74,0,1.342-0.598,1.342-1.34
			S94.339,97.644,93.599,97.644z"/>
		<path opacity="0.8298" d="M57.001,109.292c0,1.479-1.202,2.684-2.682,2.684c-1.479,0-2.683-1.205-2.683-2.684
			c0-1.48,1.203-2.682,2.683-2.682C55.799,106.611,57.001,107.812,57.001,109.292z M93.213,98.562H90.53V43.573h2.684v-8.047H15.424
			v8.047h2.682v54.989h-2.682c-0.741,0-1.342,0.6-1.342,1.342s0.601,1.34,1.342,1.34h37.554v2.684c0,0.063,0.027,0.118,0.036,0.179
			c-2.327,0.587-4.06,2.68-4.06,5.187c0,2.957,2.405,5.365,5.365,5.365c2.958,0,5.364-2.408,5.364-5.365
			c0-2.507-1.734-4.6-4.061-5.187c0.009-0.061,0.036-0.115,0.036-0.179v-2.684h37.555c0.74,0,1.342-0.598,1.342-1.34
			S93.954,98.562,93.213,98.562z"/>
		<path opacity="0.8191" d="M56.615,110.21c0,1.479-1.202,2.684-2.682,2.684s-2.683-1.205-2.683-2.684
			c0-1.48,1.204-2.682,2.683-2.682S56.615,108.73,56.615,110.21z M92.829,99.48h-2.684V44.491h2.684v-8.046h-77.79v8.046h2.682
			V99.48h-2.682c-0.74,0-1.342,0.6-1.342,1.342s0.602,1.34,1.342,1.34h37.554v2.684c0,0.063,0.028,0.118,0.037,0.18
			c-2.327,0.586-4.061,2.679-4.061,5.186c0,2.957,2.406,5.365,5.365,5.365c2.957,0,5.365-2.408,5.365-5.365
			c0-2.507-1.735-4.6-4.061-5.186c0.008-0.062,0.036-0.116,0.036-0.18v-2.684h37.555c0.739,0,1.342-0.598,1.342-1.34
			S93.568,99.48,92.829,99.48z"/>
		<path opacity="0.8085" d="M56.23,111.128c0,1.479-1.202,2.685-2.681,2.685c-1.479,0-2.683-1.205-2.683-2.685
			s1.204-2.681,2.683-2.681C55.028,108.448,56.23,109.649,56.23,111.128z M92.443,100.399h-2.684V45.41h2.684v-8.047H14.654v8.047
			h2.682v54.989h-2.682c-0.741,0-1.342,0.599-1.342,1.341s0.602,1.341,1.342,1.341h37.554v2.683c0,0.064,0.028,0.119,0.036,0.179
			c-2.326,0.587-4.06,2.681-4.06,5.187c0,2.958,2.405,5.365,5.365,5.365c2.957,0,5.364-2.407,5.364-5.365
			c0-2.506-1.734-4.6-4.061-5.187c0.009-0.06,0.036-0.114,0.036-0.179v-2.683h37.555c0.74,0,1.342-0.599,1.342-1.341
			S93.183,100.399,92.443,100.399z"/>
		<path opacity="0.7979" d="M55.845,112.047c0,1.479-1.203,2.684-2.682,2.684c-1.48,0-2.684-1.205-2.684-2.684
			c0-1.48,1.204-2.682,2.684-2.682C54.643,109.366,55.845,110.567,55.845,112.047z M92.058,101.317h-2.684V46.328h2.684V38.28
			h-77.79v8.047h2.682v54.989h-2.682c-0.741,0-1.342,0.6-1.342,1.342s0.602,1.34,1.342,1.34h37.554v2.684
			c0,0.063,0.027,0.118,0.036,0.179c-2.327,0.587-4.061,2.68-4.061,5.187c0,2.957,2.406,5.365,5.365,5.365
			c2.957,0,5.364-2.408,5.364-5.365c0-2.507-1.734-4.6-4.06-5.187c0.008-0.061,0.036-0.115,0.036-0.179v-2.684h37.555
			c0.74,0,1.342-0.598,1.342-1.34S92.798,101.317,92.058,101.317z"/>
		<path opacity="0.7872" d="M55.459,112.965c0,1.479-1.202,2.684-2.681,2.684c-1.48,0-2.683-1.205-2.683-2.684
			c0-1.48,1.203-2.682,2.683-2.682C54.257,110.284,55.459,111.485,55.459,112.965z M91.672,102.235h-2.684V47.246h2.684v-8.047
			H13.883v8.047h2.682v54.989h-2.682c-0.74,0-1.342,0.6-1.342,1.342s0.602,1.34,1.342,1.34h37.554v2.684
			c0,0.063,0.027,0.118,0.036,0.179c-2.326,0.587-4.06,2.68-4.06,5.187c0,2.957,2.405,5.365,5.365,5.365
			c2.957,0,5.364-2.408,5.364-5.365c0-2.507-1.734-4.6-4.06-5.187c0.009-0.061,0.036-0.115,0.036-0.179v-2.684h37.555
			c0.74,0,1.342-0.598,1.342-1.34S92.413,102.235,91.672,102.235z"/>
		<path opacity="0.7766" d="M55.075,113.884c0,1.478-1.202,2.684-2.682,2.684s-2.684-1.206-2.684-2.684
			c0-1.481,1.204-2.682,2.684-2.682S55.075,112.403,55.075,113.884z M91.288,103.153h-2.684V48.164h2.684v-8.047h-77.79v8.047h2.682
			v54.989h-2.682c-0.741,0-1.342,0.601-1.342,1.342c0,0.743,0.602,1.34,1.342,1.34h37.554v2.684c0,0.063,0.028,0.118,0.037,0.179
			c-2.327,0.587-4.061,2.681-4.061,5.188c0,2.957,2.405,5.364,5.365,5.364c2.957,0,5.364-2.407,5.364-5.364
			c0-2.507-1.734-4.601-4.061-5.188c0.009-0.061,0.037-0.115,0.037-0.179v-2.684h37.555c0.74,0,1.341-0.597,1.341-1.34
			C92.628,103.753,92.028,103.153,91.288,103.153z"/>
		<path opacity="0.766" d="M54.689,114.801c0,1.479-1.202,2.685-2.682,2.685c-1.479,0-2.683-1.205-2.683-2.685
			s1.203-2.681,2.683-2.681C53.487,112.121,54.689,113.322,54.689,114.801z M90.902,104.072h-2.684v-54.99h2.684v-8.047H13.113
			v8.047h2.681v54.99h-2.681c-0.741,0-1.343,0.6-1.343,1.342s0.602,1.34,1.343,1.34h37.554v2.684c0,0.063,0.027,0.117,0.036,0.178
			c-2.327,0.588-4.06,2.681-4.06,5.187c0,2.958,2.405,5.366,5.365,5.366c2.958,0,5.365-2.408,5.365-5.366
			c0-2.506-1.735-4.599-4.061-5.187c0.009-0.061,0.037-0.114,0.037-0.178v-2.684h37.554c0.74,0,1.342-0.598,1.342-1.34
			S91.642,104.072,90.902,104.072z"/>
		<path opacity="0.7553" d="M54.304,115.72c0,1.479-1.202,2.684-2.681,2.684c-1.48,0-2.684-1.205-2.684-2.684
			c0-1.48,1.204-2.682,2.684-2.682C53.102,113.039,54.304,114.24,54.304,115.72z M90.517,104.99h-2.684V50h2.684v-8.047h-77.79V50
			h2.682v54.989h-2.682c-0.741,0-1.342,0.6-1.342,1.342s0.602,1.34,1.342,1.34h37.554v2.684c0,0.063,0.027,0.118,0.036,0.179
			c-2.327,0.587-4.061,2.68-4.061,5.187c0,2.957,2.405,5.365,5.365,5.365c2.957,0,5.364-2.408,5.364-5.365
			c0-2.507-1.734-4.6-4.061-5.187c0.008-0.061,0.036-0.115,0.036-0.179v-2.684h37.555c0.74,0,1.342-0.598,1.342-1.34
			S91.257,104.99,90.517,104.99z"/>
		<path opacity="0.7447" d="M53.918,116.638c0,1.479-1.202,2.684-2.682,2.684c-1.479,0-2.683-1.205-2.683-2.684
			c0-1.48,1.204-2.682,2.683-2.682C52.716,113.957,53.918,115.158,53.918,116.638z M90.131,105.908h-2.683V50.918h2.683v-8.047
			H12.343v8.047h2.682v54.989h-2.682c-0.741,0-1.342,0.6-1.342,1.342s0.602,1.34,1.342,1.34h37.553v2.684
			c0,0.063,0.027,0.118,0.036,0.179c-2.326,0.587-4.06,2.68-4.06,5.187c0,2.957,2.405,5.365,5.364,5.365
			c2.957,0,5.364-2.408,5.364-5.365c0-2.507-1.734-4.6-4.061-5.187c0.009-0.061,0.036-0.115,0.036-0.179v-2.684h37.555
			c0.74,0,1.343-0.598,1.343-1.34S90.872,105.908,90.131,105.908z"/>
		<path opacity="0.734" d="M53.533,117.556c0,1.479-1.202,2.684-2.681,2.684c-1.479,0-2.683-1.205-2.683-2.684
			c0-1.48,1.204-2.682,2.683-2.682C52.331,114.875,53.533,116.076,53.533,117.556z M89.747,106.826h-2.684V51.837h2.684V43.79
			H11.958v8.047h2.682v54.989h-2.682c-0.741,0-1.343,0.6-1.343,1.342s0.602,1.34,1.343,1.34h37.553v2.684
			c0,0.063,0.028,0.119,0.037,0.18c-2.327,0.586-4.061,2.679-4.061,5.186c0,2.957,2.405,5.365,5.365,5.365
			c2.957,0,5.364-2.408,5.364-5.365c0-2.507-1.734-4.6-4.06-5.186c0.009-0.061,0.036-0.116,0.036-0.18v-2.684h37.555
			c0.74,0,1.342-0.598,1.342-1.34S90.487,106.826,89.747,106.826z"/>
		<path opacity="0.7234" d="M53.148,118.474c0,1.479-1.202,2.684-2.682,2.684s-2.683-1.204-2.683-2.684s1.203-2.682,2.683-2.682
			S53.148,116.995,53.148,118.474z M89.361,107.745h-2.684v-54.99h2.684v-8.046H11.572v8.046h2.682v54.99h-2.682
			c-0.741,0-1.342,0.599-1.342,1.342c0,0.741,0.601,1.34,1.342,1.34h37.554v2.684c0,0.063,0.027,0.118,0.036,0.179
			c-2.326,0.587-4.06,2.68-4.06,5.186c0,2.957,2.405,5.365,5.364,5.365c2.957,0,5.365-2.408,5.365-5.365
			c0-2.506-1.735-4.599-4.061-5.186c0.009-0.061,0.036-0.115,0.036-0.179v-2.684h37.555c0.74,0,1.342-0.599,1.342-1.34
			C90.703,108.343,90.101,107.745,89.361,107.745z"/>
		<path opacity="0.7128" d="M52.763,119.393c0,1.479-1.202,2.684-2.682,2.684s-2.683-1.205-2.683-2.684
			c0-1.48,1.204-2.682,2.683-2.682S52.763,117.913,52.763,119.393z M88.976,108.663h-2.684V53.673h2.684v-8.047H11.187v8.047h2.682
			v54.989h-2.682c-0.741,0-1.343,0.6-1.343,1.342s0.602,1.34,1.343,1.34h37.554v2.684c0,0.063,0.027,0.118,0.036,0.179
			c-2.327,0.587-4.061,2.68-4.061,5.187c0,2.957,2.405,5.365,5.365,5.365c2.957,0,5.364-2.408,5.364-5.365
			c0-2.507-1.734-4.6-4.061-5.187c0.009-0.061,0.037-0.115,0.037-0.179v-2.684h37.555c0.74,0,1.342-0.598,1.342-1.34
			S89.716,108.663,88.976,108.663z"/>
		<path opacity="0.7021" d="M52.377,120.311c0,1.479-1.202,2.684-2.682,2.684c-1.479,0-2.683-1.205-2.683-2.684
			c0-1.48,1.203-2.682,2.683-2.682C51.176,117.629,52.377,118.831,52.377,120.311z M88.59,109.581h-2.684V54.591h2.684v-8.047
			H10.802v8.047h2.682v54.989h-2.682c-0.741,0-1.342,0.6-1.342,1.342s0.602,1.34,1.342,1.34h37.553v2.684
			c0,0.063,0.028,0.118,0.036,0.179c-2.326,0.587-4.06,2.68-4.06,5.187c0,2.957,2.405,5.365,5.364,5.365
			c2.957,0,5.364-2.408,5.364-5.365c0-2.507-1.734-4.6-4.061-5.187c0.009-0.061,0.036-0.115,0.036-0.179v-2.684H88.59
			c0.74,0,1.343-0.598,1.343-1.34S89.331,109.581,88.59,109.581z"/>
		<path opacity="0.6915" d="M51.993,121.23c0,1.478-1.202,2.684-2.682,2.684c-1.479,0-2.683-1.206-2.683-2.684
			c0-1.48,1.204-2.682,2.683-2.682C50.791,118.548,51.993,119.75,51.993,121.23z M88.206,110.499h-2.684V55.509h2.684v-8.046H10.417
			v8.046h2.682v54.989h-2.682c-0.741,0-1.343,0.601-1.343,1.343s0.602,1.339,1.343,1.339H47.97v2.685
			c0,0.063,0.027,0.117,0.036,0.178c-2.327,0.588-4.061,2.68-4.061,5.188c0,2.956,2.405,5.365,5.365,5.365
			c2.958,0,5.365-2.409,5.365-5.365c0-2.508-1.734-4.6-4.061-5.188c0.009-0.061,0.036-0.115,0.036-0.178v-2.685h37.555
			c0.74,0,1.342-0.597,1.342-1.339S88.946,110.499,88.206,110.499z"/>
		<path opacity="0.6809" d="M51.607,122.148c0,1.479-1.202,2.684-2.682,2.684s-2.683-1.205-2.683-2.684
			c0-1.48,1.204-2.682,2.683-2.682S51.607,120.667,51.607,122.148z M87.82,111.417h-2.684V56.428h2.684v-8.047H10.031v8.047h2.681
			v54.989h-2.681c-0.741,0-1.342,0.6-1.342,1.342s0.602,1.34,1.342,1.34h37.553v2.684c0,0.063,0.027,0.118,0.036,0.178
			c-2.326,0.588-4.06,2.681-4.06,5.188c0,2.957,2.405,5.365,5.365,5.365c2.957,0,5.364-2.408,5.364-5.365
			c0-2.507-1.734-4.6-4.061-5.188c0.009-0.06,0.037-0.114,0.037-0.178v-2.684H87.82c0.74,0,1.342-0.598,1.342-1.34
			S88.56,111.417,87.82,111.417z"/>
		<path opacity="0.6702" d="M51.222,123.066c0,1.479-1.202,2.684-2.681,2.684s-2.683-1.205-2.683-2.684
			c0-1.48,1.204-2.682,2.683-2.682S51.222,121.585,51.222,123.066z M87.435,112.335h-2.684V57.346h2.684v-8.047H9.646v8.047h2.682
			v54.989H9.646c-0.741,0-1.342,0.6-1.342,1.342s0.601,1.34,1.342,1.34H47.2v2.684c0,0.063,0.027,0.118,0.036,0.179
			c-2.327,0.587-4.061,2.68-4.061,5.187c0,2.957,2.405,5.365,5.365,5.365c2.957,0,5.364-2.408,5.364-5.365
			c0-2.507-1.734-4.6-4.061-5.187c0.009-0.061,0.036-0.115,0.036-0.179v-2.684h37.555c0.74,0,1.342-0.598,1.342-1.34
			S88.175,112.335,87.435,112.335z"/>
		<path opacity="0.6596" d="M50.836,123.984c0,1.479-1.202,2.684-2.681,2.684c-1.48,0-2.683-1.205-2.683-2.684
			c0-1.48,1.203-2.682,2.683-2.682C49.634,121.302,50.836,122.503,50.836,123.984z M87.05,113.253h-2.684V58.264h2.684v-8.047H9.261
			v8.047h2.681v54.989H9.261c-0.741,0-1.343,0.6-1.343,1.342s0.602,1.34,1.343,1.34h37.554v2.684c0,0.063,0.027,0.118,0.036,0.179
			c-2.327,0.587-4.06,2.681-4.06,5.187c0,2.957,2.405,5.365,5.365,5.365c2.957,0,5.364-2.408,5.364-5.365
			c0-2.506-1.735-4.6-4.061-5.187c0.009-0.061,0.036-0.115,0.036-0.179v-2.684H87.05c0.74,0,1.341-0.598,1.341-1.34
			S87.791,113.253,87.05,113.253z"/>
		<path opacity="0.6489" d="M50.452,124.903c0,1.479-1.202,2.683-2.682,2.683s-2.683-1.204-2.683-2.683
			c0-1.481,1.204-2.682,2.683-2.682S50.452,123.421,50.452,124.903z M86.664,114.172h-2.683v-54.99h2.683v-8.047H8.875v8.047h2.682
			v54.99H8.875c-0.741,0-1.343,0.599-1.343,1.341s0.602,1.341,1.343,1.341h37.554v2.683c0,0.063,0.027,0.119,0.036,0.18
			c-2.327,0.587-4.061,2.68-4.061,5.187c0,2.957,2.406,5.364,5.365,5.364c2.957,0,5.364-2.407,5.364-5.364
			c0-2.507-1.734-4.6-4.061-5.187c0.009-0.061,0.036-0.116,0.036-0.18v-2.683h37.554c0.741,0,1.343-0.599,1.343-1.341
			S87.405,114.172,86.664,114.172z"/>
		<path opacity="0.6383" d="M50.066,125.82c0,1.479-1.202,2.684-2.681,2.684s-2.683-1.204-2.683-2.684s1.204-2.681,2.683-2.681
			S50.066,124.34,50.066,125.82z M86.279,115.09h-2.684v-54.99h2.684v-8.046H8.49v8.046h2.681v54.99H8.49
			c-0.741,0-1.342,0.6-1.342,1.342c0,0.741,0.602,1.34,1.342,1.34h37.553v2.684c0,0.063,0.028,0.118,0.036,0.179
			c-2.326,0.587-4.06,2.68-4.06,5.186c0,2.958,2.405,5.366,5.365,5.366c2.957,0,5.364-2.408,5.364-5.366
			c0-2.506-1.734-4.599-4.061-5.186c0.009-0.061,0.036-0.115,0.036-0.179v-2.684h37.555c0.74,0,1.342-0.599,1.342-1.34
			C87.621,115.69,87.019,115.09,86.279,115.09z"/>
		<path opacity="0.6277" d="M49.681,126.739c0,1.479-1.202,2.684-2.682,2.684s-2.684-1.205-2.684-2.684
			c0-1.48,1.204-2.682,2.684-2.682S49.681,125.258,49.681,126.739z M85.894,116.008H83.21V61.019h2.684v-8.047H8.105v8.047h2.682
			v54.989H8.105c-0.741,0-1.342,0.6-1.342,1.342s0.602,1.34,1.342,1.34h37.554v2.684c0,0.063,0.027,0.118,0.036,0.179
			c-2.327,0.587-4.06,2.68-4.06,5.187c0,2.957,2.405,5.365,5.365,5.365c2.957,0,5.364-2.408,5.364-5.365
			c0-2.507-1.734-4.6-4.061-5.187c0.009-0.061,0.036-0.115,0.036-0.179v-2.684h37.555c0.74,0,1.342-0.598,1.342-1.34
			S86.634,116.008,85.894,116.008z"/>
		<path opacity="0.617" d="M49.296,127.657c0,1.479-1.202,2.684-2.682,2.684c-1.479,0-2.683-1.205-2.683-2.684
			c0-1.48,1.203-2.682,2.683-2.682C48.094,124.975,49.296,126.176,49.296,127.657z M85.509,116.926h-2.685V61.937h2.685V53.89H7.72
			v8.047h2.681v54.989H7.72c-0.741,0-1.342,0.6-1.342,1.342c0,0.743,0.602,1.34,1.342,1.34h37.554v2.684
			c0,0.063,0.027,0.118,0.036,0.179c-2.326,0.587-4.06,2.68-4.06,5.187c0,2.957,2.405,5.366,5.364,5.366
			c2.958,0,5.365-2.409,5.365-5.366c0-2.507-1.734-4.6-4.061-5.187c0.009-0.061,0.036-0.115,0.036-0.179v-2.684h37.556
			c0.74,0,1.341-0.597,1.341-1.34C86.85,117.526,86.25,116.926,85.509,116.926z"/>
		<path opacity="0.6064" d="M48.911,128.576c0,1.479-1.202,2.683-2.682,2.683s-2.684-1.204-2.684-2.683
			c0-1.48,1.204-2.683,2.684-2.683S48.911,127.095,48.911,128.576z M85.124,117.845H82.44v-54.99h2.684v-8.046H7.334v8.046h2.682
			v54.99H7.334c-0.741,0-1.343,0.599-1.343,1.342c0,0.742,0.602,1.34,1.343,1.34h37.554v2.684c0,0.063,0.027,0.117,0.036,0.179
			c-2.327,0.586-4.06,2.679-4.06,5.187c0,2.957,2.405,5.364,5.365,5.364c2.957,0,5.364-2.407,5.364-5.364
			c0-2.508-1.734-4.601-4.061-5.187c0.009-0.062,0.036-0.116,0.036-0.179v-2.684h37.555c0.74,0,1.342-0.598,1.342-1.34
			C86.465,118.444,85.864,117.845,85.124,117.845z"/>
		<path opacity="0.5957" d="M48.525,129.494c0,1.479-1.202,2.684-2.682,2.684s-2.683-1.205-2.683-2.684
			c0-1.48,1.203-2.682,2.683-2.682S48.525,128.013,48.525,129.494z M84.738,118.763h-2.684V63.774h2.684v-8.047H6.949v8.047H9.63
			v54.989H6.949c-0.741,0-1.342,0.6-1.342,1.342s0.602,1.34,1.342,1.34h37.553v2.684c0,0.063,0.028,0.117,0.036,0.178
			c-2.326,0.588-4.06,2.681-4.06,5.188c0,2.957,2.405,5.365,5.364,5.365c2.957,0,5.364-2.408,5.364-5.365
			c0-2.507-1.734-4.6-4.06-5.188c0.009-0.061,0.036-0.114,0.036-0.178v-2.684h37.554c0.74,0,1.342-0.598,1.342-1.34
			S85.478,118.763,84.738,118.763z"/>
		<path opacity="0.5851" d="M48.14,130.412c0,1.479-1.202,2.684-2.682,2.684s-2.684-1.205-2.684-2.684
			c0-1.48,1.204-2.682,2.684-2.682S48.14,128.931,48.14,130.412z M84.353,119.681h-2.684V64.692h2.684v-8.047H6.564v8.047h2.682
			v54.989H6.564c-0.741,0-1.342,0.6-1.342,1.342s0.601,1.34,1.342,1.34h37.554v2.684c0,0.063,0.027,0.118,0.036,0.179
			c-2.327,0.587-4.06,2.68-4.06,5.187c0,2.957,2.405,5.365,5.365,5.365c2.957,0,5.364-2.408,5.364-5.365
			c0-2.507-1.734-4.6-4.061-5.187c0.009-0.061,0.036-0.115,0.036-0.179v-2.684h37.555c0.74,0,1.342-0.598,1.342-1.34
			S85.093,119.681,84.353,119.681z"/>
		<path opacity="0.5745" d="M47.754,131.33c0,1.479-1.202,2.684-2.682,2.684c-1.479,0-2.683-1.205-2.683-2.684
			c0-1.48,1.204-2.682,2.683-2.682C46.553,128.648,47.754,129.849,47.754,131.33z M83.967,120.599h-2.683V65.61h2.683v-8.046H6.179
			v8.046h2.682v54.989H6.179c-0.741,0-1.343,0.6-1.343,1.342s0.602,1.34,1.343,1.34h37.553v2.684c0,0.063,0.027,0.119,0.036,0.179
			c-2.326,0.587-4.06,2.68-4.06,5.187c0,2.957,2.405,5.365,5.364,5.365c2.957,0,5.365-2.408,5.365-5.365
			c0-2.507-1.735-4.6-4.062-5.187c0.01-0.06,0.037-0.115,0.037-0.179v-2.684h37.554c0.74,0,1.343-0.598,1.343-1.34
			S84.708,120.599,83.967,120.599z"/>
		<path opacity="0.5638" d="M47.37,132.249c0,1.478-1.202,2.683-2.682,2.683s-2.684-1.205-2.684-2.683
			c0-1.481,1.204-2.683,2.684-2.683S47.37,130.767,47.37,132.249z M83.583,121.517h-2.684V66.528h2.684v-8.046H5.793v8.046h2.682
			v54.989H5.793c-0.741,0-1.342,0.6-1.342,1.342s0.602,1.34,1.342,1.34h37.554v2.684c0,0.063,0.027,0.119,0.036,0.18
			c-2.327,0.586-4.06,2.68-4.06,5.187c0,2.956,2.405,5.364,5.365,5.364c2.957,0,5.364-2.408,5.364-5.364
			c0-2.507-1.734-4.601-4.061-5.187c0.009-0.061,0.036-0.116,0.036-0.18v-2.684h37.555c0.74,0,1.342-0.598,1.342-1.34
			S84.323,121.517,83.583,121.517z"/>
		<path opacity="0.5532" d="M46.984,133.166c0,1.479-1.202,2.685-2.681,2.685c-1.48,0-2.684-1.206-2.684-2.685
			c0-1.479,1.203-2.681,2.684-2.681C45.782,130.485,46.984,131.686,46.984,133.166z M83.198,122.435h-2.685V67.447h2.685v-8.047
			H5.409v8.047H8.09v54.988H5.409c-0.741,0-1.343,0.601-1.343,1.343c0,0.741,0.602,1.339,1.343,1.339h37.554v2.685
			c0,0.063,0.026,0.118,0.035,0.179c-2.326,0.586-4.06,2.68-4.06,5.186c0,2.957,2.405,5.366,5.365,5.366
			c2.957,0,5.364-2.409,5.364-5.366c0-2.506-1.734-4.6-4.06-5.186c0.009-0.061,0.036-0.115,0.036-0.179v-2.685h37.555
			c0.739,0,1.341-0.598,1.341-1.339C84.539,123.036,83.937,122.435,83.198,122.435z"/>
		<path opacity="0.5426" d="M46.599,134.084c0,1.479-1.202,2.684-2.682,2.684s-2.684-1.205-2.684-2.684
			c0-1.48,1.204-2.682,2.684-2.682S46.599,132.604,46.599,134.084z M82.812,123.354h-2.684V68.365h2.684v-8.047H5.023v8.047h2.682
			v54.989H5.023c-0.741,0-1.342,0.6-1.342,1.342s0.601,1.34,1.342,1.34h37.554v2.684c0,0.063,0.027,0.118,0.036,0.179
			c-2.327,0.587-4.06,2.68-4.06,5.187c0,2.957,2.404,5.365,5.364,5.365c2.957,0,5.364-2.408,5.364-5.365
			c0-2.507-1.734-4.6-4.061-5.187c0.009-0.061,0.036-0.115,0.036-0.179v-2.684h37.555c0.74,0,1.342-0.598,1.342-1.34
			S83.552,123.354,82.812,123.354z"/>
		<path opacity="0.5319" d="M46.214,135.002c0,1.479-1.203,2.684-2.682,2.684c-1.479,0-2.683-1.205-2.683-2.684
			c0-1.48,1.204-2.682,2.683-2.682C45.011,132.321,46.214,133.522,46.214,135.002z M82.427,124.272h-2.684V69.283h2.684v-8.047
			H4.638v8.047h2.681v54.989H4.638c-0.741,0-1.343,0.601-1.343,1.342c0,0.743,0.602,1.341,1.343,1.341h37.553v2.683
			c0,0.063,0.027,0.118,0.036,0.179c-2.326,0.587-4.06,2.68-4.06,5.187c0,2.957,2.405,5.365,5.365,5.365
			c2.957,0,5.364-2.408,5.364-5.365c0-2.507-1.734-4.6-4.06-5.187c0.009-0.061,0.036-0.115,0.036-0.179v-2.683h37.556
			c0.739,0,1.342-0.598,1.342-1.341C83.769,124.873,83.167,124.272,82.427,124.272z"/>
		<path opacity="0.5213" d="M45.829,135.921c0,1.479-1.202,2.683-2.682,2.683s-2.684-1.204-2.684-2.683
			c0-1.48,1.204-2.682,2.684-2.682S45.829,134.441,45.829,135.921z M82.042,125.191h-2.684v-54.99h2.684v-8.047H4.252v8.047h2.682
			v54.99H4.252c-0.741,0-1.342,0.6-1.342,1.341c0,0.743,0.601,1.341,1.342,1.341h37.554v2.684c0,0.063,0.027,0.117,0.036,0.179
			c-2.327,0.587-4.06,2.679-4.06,5.187c0,2.956,2.404,5.364,5.364,5.364c2.957,0,5.364-2.408,5.364-5.364
			c0-2.508-1.734-4.6-4.061-5.187c0.009-0.062,0.036-0.116,0.036-0.179v-2.684h37.555c0.74,0,1.342-0.598,1.342-1.341
			C83.383,125.791,82.782,125.191,82.042,125.191z"/>
		<path opacity="0.5106" d="M45.443,136.839c0,1.479-1.202,2.684-2.681,2.684c-1.479,0-2.683-1.205-2.683-2.684
			c0-1.48,1.204-2.682,2.683-2.682C44.241,134.158,45.443,135.359,45.443,136.839z M81.656,126.109h-2.684v-54.99h2.684v-8.046
			H3.868v8.046h2.681v54.99H3.868c-0.741,0-1.343,0.6-1.343,1.342s0.602,1.34,1.343,1.34h37.554v2.684
			c0,0.063,0.026,0.118,0.035,0.178c-2.326,0.588-4.06,2.681-4.06,5.188c0,2.957,2.405,5.365,5.365,5.365
			c2.957,0,5.364-2.408,5.364-5.365c0-2.507-1.734-4.6-4.061-5.188c0.01-0.06,0.037-0.114,0.037-0.178v-2.684h37.554
			c0.74,0,1.343-0.598,1.343-1.34S82.396,126.109,81.656,126.109z"/>
		<path opacity="0.5" d="M45.058,137.757c0,1.479-1.202,2.684-2.682,2.684s-2.683-1.205-2.683-2.684c0-1.48,1.204-2.682,2.683-2.682
			S45.058,136.277,45.058,137.757z M81.271,127.027h-2.684V72.038h2.684v-8.047H3.482v8.047h2.682v54.989H3.482
			c-0.741,0-1.342,0.6-1.342,1.342s0.602,1.34,1.342,1.34h37.554v2.684c0,0.063,0.027,0.118,0.036,0.179
			c-2.327,0.587-4.06,2.68-4.06,5.187c0,2.957,2.405,5.365,5.365,5.365c2.957,0,5.364-2.408,5.364-5.365
			c0-2.507-1.734-4.6-4.061-5.187c0.009-0.061,0.036-0.115,0.036-0.179v-2.684h37.555c0.74,0,1.342-0.598,1.342-1.34
			S82.011,127.027,81.271,127.027z"/>
		<path opacity="0.4894" d="M44.672,138.675c0,1.479-1.202,2.684-2.681,2.684c-1.479,0-2.683-1.205-2.683-2.684
			c0-1.48,1.204-2.682,2.683-2.682C43.471,135.994,44.672,137.195,44.672,138.675z M80.885,127.945h-2.683V72.956h2.683V64.91H3.097
			v8.046h2.681v54.989H3.097c-0.741,0-1.343,0.6-1.343,1.342s0.602,1.34,1.343,1.34h37.554v2.684c0,0.063,0.026,0.118,0.036,0.179
			c-2.327,0.587-4.061,2.68-4.061,5.187c0,2.957,2.405,5.365,5.365,5.365c2.957,0,5.364-2.408,5.364-5.365
			c0-2.507-1.734-4.6-4.061-5.187c0.01-0.061,0.037-0.115,0.037-0.179v-2.684h37.554c0.74,0,1.343-0.598,1.343-1.34
			S81.625,127.945,80.885,127.945z"/>
		<path opacity="0.4787" d="M44.288,139.594c0,1.478-1.202,2.683-2.682,2.683s-2.684-1.205-2.684-2.683
			c0-1.481,1.204-2.682,2.684-2.682S44.288,138.113,44.288,139.594z M80.5,128.863h-2.684V73.875H80.5v-8.047H2.711v8.047h2.682
			v54.988H2.711c-0.741,0-1.342,0.6-1.342,1.342c0,0.743,0.602,1.34,1.342,1.34h37.554v2.685c0,0.063,0.027,0.118,0.036,0.179
			c-2.327,0.586-4.06,2.679-4.06,5.187c0,2.956,2.404,5.364,5.364,5.364c2.957,0,5.364-2.408,5.364-5.364
			c0-2.508-1.734-4.601-4.061-5.187c0.009-0.061,0.036-0.115,0.036-0.179v-2.685H80.5c0.74,0,1.342-0.597,1.342-1.34
			C81.842,129.462,81.241,128.863,80.5,128.863z"/>
		<path opacity="0.4681" d="M43.902,140.511c0,1.479-1.202,2.685-2.681,2.685c-1.48,0-2.684-1.205-2.684-2.685
			s1.204-2.681,2.684-2.681C42.701,137.831,43.902,139.032,43.902,140.511z M80.115,129.782h-2.683V74.792h2.683v-8.047H2.327v8.047
			h2.681v54.989H2.327c-0.741,0-1.343,0.6-1.343,1.342s0.602,1.34,1.343,1.34H39.88v2.684c0,0.063,0.027,0.118,0.037,0.179
			c-2.327,0.587-4.061,2.68-4.061,5.186c0,2.958,2.405,5.366,5.365,5.366c2.957,0,5.363-2.408,5.363-5.366
			c0-2.506-1.734-4.599-4.06-5.186c0.009-0.061,0.036-0.115,0.036-0.179v-2.684h37.555c0.74,0,1.343-0.598,1.343-1.34
			S80.855,129.782,80.115,129.782z"/>
		<path opacity="0.4574" d="M43.517,141.43c0,1.479-1.202,2.684-2.682,2.684s-2.684-1.205-2.684-2.684
			c0-1.48,1.204-2.682,2.684-2.682S43.517,139.95,43.517,141.43z M79.73,130.7h-2.684V75.71h2.684v-8.047H1.941v8.047h2.682V130.7
			H1.941c-0.741,0-1.342,0.6-1.342,1.342s0.601,1.34,1.342,1.34h37.554v2.684c0,0.063,0.027,0.118,0.036,0.179
			c-2.326,0.587-4.06,2.68-4.06,5.187c0,2.957,2.405,5.365,5.364,5.365c2.957,0,5.364-2.408,5.364-5.365
			c0-2.507-1.734-4.6-4.061-5.187c0.009-0.061,0.036-0.115,0.036-0.179v-2.684H79.73c0.74,0,1.342-0.598,1.342-1.34
			S80.47,130.7,79.73,130.7z"/>
		<path opacity="0.4468" d="M43.132,142.348c0,1.479-1.202,2.684-2.682,2.684s-2.684-1.205-2.684-2.684
			c0-1.479,1.204-2.681,2.684-2.681S43.132,140.869,43.132,142.348z M79.345,131.618h-2.685V76.628h2.685v-8.047H1.556v8.047h2.682
			v54.989H1.556c-0.741,0-1.343,0.6-1.343,1.342s0.602,1.34,1.343,1.34H39.11v2.684c0,0.063,0.027,0.118,0.036,0.179
			c-2.327,0.588-4.061,2.68-4.061,5.187c0,2.957,2.405,5.365,5.365,5.365c2.957,0,5.364-2.408,5.364-5.365
			c0-2.507-1.734-4.599-4.06-5.187c0.009-0.061,0.036-0.115,0.036-0.179v-2.684h37.555c0.74,0,1.342-0.598,1.342-1.34
			S80.085,131.618,79.345,131.618z"/>
		<path opacity="0.4362" d="M42.747,143.267c0,1.479-1.202,2.683-2.682,2.683s-2.683-1.204-2.683-2.683
			c0-1.48,1.204-2.682,2.683-2.682S42.747,141.787,42.747,143.267z M78.959,132.537h-2.684v-54.99h2.684V69.5H1.17v8.046h2.682
			v54.99H1.17c-0.74,0-1.342,0.6-1.342,1.342s0.602,1.339,1.342,1.339h37.554v2.685c0,0.063,0.027,0.118,0.036,0.179
			c-2.327,0.586-4.06,2.679-4.06,5.187c0,2.957,2.405,5.365,5.364,5.365c2.957,0,5.364-2.408,5.364-5.365
			c0-2.508-1.734-4.601-4.061-5.187c0.009-0.061,0.036-0.115,0.036-0.179v-2.685h37.555c0.74,0,1.342-0.597,1.342-1.339
			S79.7,132.537,78.959,132.537z"/>
		<path opacity="0.4255" d="M42.362,144.185c0,1.479-1.203,2.684-2.682,2.684c-1.48,0-2.684-1.205-2.684-2.684
			c0-1.48,1.204-2.682,2.684-2.682C41.159,141.503,42.362,142.705,42.362,144.185z M78.574,133.455H75.89v-54.99h2.684v-8.046H0.786
			v8.046h2.682v54.99H0.786c-0.741,0-1.343,0.6-1.343,1.342s0.602,1.34,1.343,1.34h37.553v2.684c0,0.063,0.027,0.118,0.037,0.178
			c-2.327,0.588-4.061,2.681-4.061,5.188c0,2.957,2.405,5.365,5.365,5.365c2.957,0,5.364-2.408,5.364-5.365
			c0-2.507-1.735-4.6-4.061-5.188c0.009-0.06,0.037-0.114,0.037-0.178v-2.684h37.554c0.74,0,1.342-0.598,1.342-1.34
			S79.314,133.455,78.574,133.455z"/>
		<path opacity="0.4149" d="M41.976,145.103c0,1.479-1.202,2.684-2.682,2.684s-2.683-1.205-2.683-2.684
			c0-1.48,1.204-2.682,2.683-2.682S41.976,143.623,41.976,145.103z M78.189,134.373h-2.684V79.383h2.684v-8.047H0.4v8.047h2.682
			v54.989H0.4c-0.74,0-1.342,0.6-1.342,1.342s0.602,1.34,1.342,1.34h37.554v2.684c0,0.063,0.027,0.118,0.036,0.179
			c-2.327,0.587-4.06,2.68-4.06,5.187c0,2.957,2.405,5.365,5.365,5.365c2.957,0,5.364-2.408,5.364-5.365
			c0-2.507-1.734-4.6-4.061-5.187c0.009-0.061,0.036-0.115,0.036-0.179v-2.684h37.555c0.74,0,1.342-0.598,1.342-1.34
			S78.929,134.373,78.189,134.373z"/>
		<path opacity="0.4043" d="M41.591,146.021c0,1.479-1.202,2.684-2.682,2.684c-1.479,0-2.683-1.205-2.683-2.684
			c0-1.48,1.204-2.682,2.683-2.682C40.389,143.339,41.591,144.541,41.591,146.021z M77.804,135.291h-2.684V80.301h2.684v-8.047
			H0.015v8.047h2.682v54.989H0.015c-0.741,0-1.343,0.6-1.343,1.342s0.602,1.34,1.343,1.34h37.554v2.684
			c0,0.063,0.027,0.118,0.036,0.179c-2.327,0.587-4.061,2.68-4.061,5.187c0,2.957,2.405,5.365,5.365,5.365
			c2.957,0,5.364-2.408,5.364-5.365c0-2.507-1.734-4.6-4.061-5.187c0.009-0.061,0.036-0.115,0.036-0.179v-2.684h37.555
			c0.74,0,1.342-0.598,1.342-1.34S78.544,135.291,77.804,135.291z"/>
		<path opacity="0.3936" d="M41.206,146.94c0,1.479-1.202,2.683-2.682,2.683s-2.683-1.204-2.683-2.683
			c0-1.481,1.204-2.683,2.683-2.683S41.206,145.458,41.206,146.94z M77.418,136.209h-2.684V81.22h2.684v-8.047H-0.371v8.047h2.682
			v54.989h-2.682c-0.741,0-1.342,0.599-1.342,1.341c0,0.743,0.602,1.34,1.342,1.34h37.554v2.685c0,0.063,0.027,0.117,0.036,0.179
			c-2.326,0.587-4.06,2.68-4.06,5.187c0,2.956,2.405,5.365,5.365,5.365c2.957,0,5.364-2.409,5.364-5.365
			c0-2.507-1.734-4.6-4.061-5.187c0.009-0.062,0.036-0.115,0.036-0.179v-2.685h37.555c0.74,0,1.342-0.597,1.342-1.34
			C78.76,136.808,78.159,136.209,77.418,136.209z"/>
		<path opacity="0.383" d="M40.821,147.857c0,1.479-1.202,2.685-2.682,2.685c-1.479,0-2.683-1.205-2.683-2.685
			s1.204-2.681,2.683-2.681C39.619,145.176,40.821,146.377,40.821,147.857z M77.034,137.127H74.35V82.138h2.684v-8.047H-0.755v8.047
			h2.682v54.989h-2.682c-0.741,0-1.343,0.599-1.343,1.342c0,0.742,0.602,1.339,1.343,1.339h37.554v2.685
			c0,0.063,0.027,0.118,0.036,0.179c-2.327,0.587-4.061,2.68-4.061,5.186c0,2.958,2.405,5.366,5.365,5.366
			c2.958,0,5.365-2.408,5.365-5.366c0-2.506-1.735-4.599-4.061-5.186c0.009-0.061,0.036-0.115,0.036-0.179v-2.685h37.555
			c0.739,0,1.341-0.597,1.341-1.339C78.375,137.726,77.773,137.127,77.034,137.127z"/>
		<path opacity="0.3723" d="M40.435,148.776c0,1.479-1.202,2.684-2.682,2.684s-2.683-1.205-2.683-2.684
			c0-1.48,1.204-2.682,2.683-2.682S40.435,147.295,40.435,148.776z M76.648,138.045h-2.684V83.056h2.684v-8.047H-1.141v8.047h2.682
			v54.989h-2.682c-0.741,0-1.342,0.6-1.342,1.342s0.601,1.34,1.342,1.34h37.554v2.684c0,0.063,0.027,0.118,0.036,0.179
			c-2.327,0.587-4.06,2.68-4.06,5.187c0,2.957,2.406,5.365,5.365,5.365c2.957,0,5.364-2.408,5.364-5.365
			c0-2.507-1.734-4.6-4.061-5.187c0.009-0.061,0.036-0.115,0.036-0.179v-2.684h37.555c0.74,0,1.342-0.598,1.342-1.34
			S77.388,138.045,76.648,138.045z"/>
		<path opacity="0.3617" d="M40.05,149.694c0,1.479-1.203,2.684-2.682,2.684s-2.683-1.204-2.683-2.684s1.204-2.682,2.683-2.682
			S40.05,148.214,40.05,149.694z M76.263,138.964H73.58v-54.99h2.684v-8.047H-1.526v8.047h2.681v54.99h-2.681
			c-0.741,0-1.343,0.6-1.343,1.342c0,0.741,0.602,1.339,1.343,1.339h37.553v2.684c0,0.063,0.027,0.118,0.037,0.179
			c-2.327,0.587-4.061,2.68-4.061,5.187c0,2.958,2.405,5.366,5.365,5.366c2.958,0,5.365-2.408,5.365-5.366
			c0-2.507-1.735-4.6-4.061-5.187c0.009-0.061,0.037-0.115,0.037-0.179v-2.684h37.555c0.74,0,1.342-0.598,1.342-1.339
			C77.605,139.564,77.003,138.964,76.263,138.964z"/>
		<path opacity="0.3511" d="M39.665,150.613c0,1.479-1.202,2.684-2.682,2.684s-2.683-1.205-2.683-2.684
			c0-1.48,1.204-2.682,2.683-2.682S39.665,149.132,39.665,150.613z M75.877,139.882h-2.684V84.893h2.684v-8.048H-1.912v8.048H0.77
			v54.989h-2.682c-0.74,0-1.342,0.6-1.342,1.342s0.602,1.34,1.342,1.34h37.554v2.684c0,0.063,0.027,0.117,0.036,0.179
			c-2.326,0.587-4.06,2.679-4.06,5.187c0,2.957,2.406,5.365,5.365,5.365c2.957,0,5.364-2.408,5.364-5.365
			c0-2.508-1.734-4.6-4.061-5.187c0.009-0.062,0.036-0.115,0.036-0.179v-2.684h37.555c0.74,0,1.342-0.598,1.342-1.34
			S76.618,139.882,75.877,139.882z"/>
		<path opacity="0.3404" d="M39.279,151.531c0,1.479-1.202,2.684-2.681,2.684s-2.684-1.205-2.684-2.684
			c0-1.48,1.204-2.682,2.684-2.682S39.279,150.05,39.279,151.531z M75.492,140.8h-2.684V85.811h2.684v-8.047H-2.296v8.047h2.681
			V140.8h-2.681c-0.741,0-1.343,0.6-1.343,1.342s0.602,1.34,1.343,1.34h37.554v2.684c0,0.063,0.027,0.118,0.036,0.178
			c-2.327,0.588-4.061,2.681-4.061,5.188c0,2.957,2.405,5.365,5.365,5.365c2.957,0,5.364-2.408,5.364-5.365
			c0-2.507-1.734-4.6-4.061-5.188c0.009-0.06,0.037-0.114,0.037-0.178v-2.684h37.554c0.741,0,1.343-0.598,1.343-1.34
			S76.233,140.8,75.492,140.8z"/>
		<path opacity="0.3298" d="M38.894,152.449c0,1.479-1.202,2.684-2.682,2.684s-2.683-1.205-2.683-2.684
			c0-1.48,1.204-2.682,2.683-2.682S38.894,150.968,38.894,152.449z M75.107,141.718h-2.684V86.729h2.684v-8.047H-2.682v8.047H0
			v54.989h-2.681c-0.741,0-1.343,0.6-1.343,1.342s0.602,1.34,1.343,1.34h37.554v2.684c0,0.063,0.027,0.118,0.036,0.179
			c-2.326,0.587-4.06,2.68-4.06,5.187c0,2.957,2.406,5.365,5.365,5.365c2.957,0,5.364-2.408,5.364-5.365
			c0-2.507-1.734-4.6-4.061-5.187c0.009-0.061,0.036-0.115,0.036-0.179V144.4h37.555c0.74,0,1.342-0.598,1.342-1.34
			S75.847,141.718,75.107,141.718z"/>
		<path opacity="0.3191" d="M38.509,153.367c0,1.479-1.202,2.684-2.681,2.684s-2.684-1.205-2.684-2.684
			c0-1.48,1.204-2.682,2.684-2.682S38.509,151.886,38.509,153.367z M74.722,142.636h-2.684V87.648h2.684V79.6H-3.067v8.048h2.681
			v54.988h-2.681c-0.741,0-1.343,0.6-1.343,1.342s0.602,1.34,1.343,1.34h37.553v2.684c0,0.063,0.027,0.119,0.037,0.179
			c-2.327,0.587-4.061,2.681-4.061,5.187c0,2.957,2.405,5.365,5.365,5.365c2.957,0,5.364-2.408,5.364-5.365
			c0-2.506-1.735-4.6-4.061-5.187c0.009-0.06,0.036-0.115,0.036-0.179v-2.684h37.555c0.74,0,1.342-0.598,1.342-1.34
			S75.462,142.636,74.722,142.636z"/>
		<path opacity="0.3085" d="M38.124,154.286c0,1.479-1.203,2.683-2.682,2.683s-2.683-1.204-2.683-2.683
			c0-1.481,1.203-2.683,2.683-2.683S38.124,152.804,38.124,154.286z M74.336,143.555h-2.684v-54.99h2.684v-8.046H-3.452v8.046h2.681
			v54.99h-2.681c-0.741,0-1.342,0.6-1.342,1.342s0.602,1.339,1.342,1.339h37.553v2.685c0,0.063,0.027,0.118,0.036,0.179
			c-2.327,0.586-4.06,2.68-4.06,5.187c0,2.956,2.406,5.365,5.365,5.365c2.958,0,5.365-2.409,5.365-5.365
			c0-2.507-1.735-4.601-4.061-5.187c0.009-0.061,0.036-0.115,0.036-0.179v-2.685h37.555c0.74,0,1.342-0.597,1.342-1.339
			S75.077,143.555,74.336,143.555z"/>
		<path opacity="0.2979" d="M37.739,155.204c0,1.479-1.203,2.684-2.682,2.684c-1.48,0-2.683-1.205-2.683-2.684
			c0-1.48,1.203-2.683,2.683-2.683C36.536,152.521,37.739,153.723,37.739,155.204z M73.951,144.473h-2.683V89.484h2.683v-8.047
			H-3.837v8.047h2.681v54.989h-2.681c-0.741,0-1.343,0.6-1.343,1.342s0.602,1.34,1.343,1.34h37.554v2.684
			c0,0.063,0.027,0.118,0.036,0.179c-2.327,0.587-4.06,2.68-4.06,5.187c0,2.957,2.405,5.365,5.365,5.365
			c2.957,0,5.364-2.408,5.364-5.365c0-2.507-1.734-4.6-4.061-5.187c0.009-0.061,0.036-0.115,0.036-0.179v-2.684h37.554
			c0.741,0,1.343-0.598,1.343-1.34S74.692,144.473,73.951,144.473z"/>
		<path opacity="0.2872" d="M37.353,156.122c0,1.479-1.202,2.684-2.682,2.684s-2.683-1.205-2.683-2.684
			c0-1.48,1.203-2.682,2.683-2.682S37.353,154.641,37.353,156.122z M73.566,145.391h-2.684V90.402h2.684v-8.047H-4.223v8.047h2.681
			v54.989h-2.681c-0.741,0-1.343,0.6-1.343,1.342s0.602,1.34,1.343,1.34h37.553v2.684c0,0.063,0.027,0.118,0.036,0.179
			c-2.326,0.587-4.06,2.68-4.06,5.187c0,2.957,2.405,5.365,5.364,5.365c2.957,0,5.364-2.408,5.364-5.365
			c0-2.507-1.734-4.6-4.061-5.187c0.009-0.061,0.037-0.115,0.037-0.179v-2.684h37.554c0.74,0,1.342-0.598,1.342-1.34
			S74.306,145.391,73.566,145.391z"/>
		<path opacity="0.2766" d="M36.968,157.04c0,1.479-1.202,2.685-2.682,2.685s-2.683-1.205-2.683-2.685s1.204-2.682,2.683-2.682
			S36.968,155.56,36.968,157.04z M73.181,146.31h-2.684V91.32h2.684v-8.047H-4.608v8.047h2.682v54.99h-2.682
			c-0.741,0-1.342,0.6-1.342,1.341c0,0.742,0.601,1.34,1.342,1.34h37.554v2.684c0,0.063,0.027,0.118,0.036,0.179
			c-2.327,0.588-4.06,2.68-4.06,5.187c0,2.957,2.405,5.366,5.365,5.366c2.957,0,5.364-2.409,5.364-5.366
			c0-2.507-1.735-4.599-4.061-5.187c0.009-0.061,0.036-0.115,0.036-0.179v-2.684h37.555c0.74,0,1.342-0.598,1.342-1.34
			C74.523,146.91,73.921,146.31,73.181,146.31z"/>
		<path opacity="0.266" d="M36.583,157.958c0,1.479-1.202,2.684-2.681,2.684c-1.48,0-2.683-1.205-2.683-2.684
			c0-1.48,1.203-2.683,2.683-2.683C35.38,155.276,36.583,156.478,36.583,157.958z M72.795,147.228h-2.684v-54.99h2.684v-8.047
			H-4.993v8.047h2.681v54.99h-2.681c-0.741,0-1.342,0.6-1.342,1.342s0.602,1.34,1.342,1.34H32.56v2.684
			c0,0.063,0.027,0.118,0.036,0.179c-2.326,0.587-4.06,2.679-4.06,5.187c0,2.957,2.405,5.365,5.365,5.365
			c2.957,0,5.364-2.408,5.364-5.365c0-2.508-1.734-4.6-4.061-5.187c0.009-0.061,0.036-0.115,0.036-0.179v-2.684h37.555
			c0.74,0,1.343-0.598,1.343-1.34S73.536,147.228,72.795,147.228z"/>
		<path opacity="0.2553" d="M36.197,158.876c0,1.479-1.202,2.684-2.681,2.684s-2.683-1.205-2.683-2.684
			c0-1.48,1.204-2.682,2.683-2.682S36.197,157.396,36.197,158.876z M72.411,148.146h-2.684V93.157h2.684V85.11H-5.378v8.047h2.682
			v54.989h-2.682c-0.741,0-1.343,0.6-1.343,1.342s0.602,1.34,1.343,1.34h37.554v2.684c0,0.063,0.027,0.118,0.036,0.179
			c-2.327,0.587-4.06,2.68-4.06,5.187c0,2.957,2.405,5.365,5.365,5.365c2.957,0,5.364-2.408,5.364-5.365
			c0-2.507-1.735-4.6-4.061-5.187c0.009-0.061,0.036-0.115,0.036-0.179v-2.684h37.555c0.74,0,1.342-0.598,1.342-1.34
			S73.151,148.146,72.411,148.146z"/>
		<path opacity="0.2447" d="M35.813,159.794c0,1.479-1.203,2.684-2.682,2.684c-1.479,0-2.683-1.205-2.683-2.684
			c0-1.48,1.204-2.682,2.683-2.682C34.61,157.113,35.813,158.314,35.813,159.794z M72.025,149.064h-2.684V94.075h2.684v-8.047
			H-5.764v8.047h2.681v54.989h-2.681c-0.741,0-1.343,0.6-1.343,1.342s0.602,1.34,1.343,1.34H31.79v2.684
			c0,0.063,0.028,0.118,0.036,0.179c-2.327,0.587-4.06,2.68-4.06,5.187c0,2.957,2.405,5.365,5.364,5.365
			c2.958,0,5.364-2.408,5.364-5.365c0-2.507-1.734-4.6-4.061-5.187c0.009-0.061,0.036-0.115,0.036-0.179v-2.684h37.555
			c0.74,0,1.342-0.598,1.342-1.34S72.765,149.064,72.025,149.064z"/>
		<path opacity="0.234" d="M35.427,160.712c0,1.479-1.203,2.684-2.682,2.684c-1.479,0-2.683-1.205-2.683-2.684
			c0-1.48,1.204-2.681,2.683-2.681C34.225,158.032,35.427,159.232,35.427,160.712z M71.64,149.982h-2.684V94.994h2.684v-8.048
			h-77.79v8.048h2.682v54.988h-2.682c-0.741,0-1.342,0.6-1.342,1.342c0,0.743,0.601,1.34,1.342,1.34h37.554v2.684
			c0,0.063,0.027,0.118,0.036,0.179c-2.327,0.587-4.06,2.681-4.06,5.187c0,2.957,2.405,5.365,5.364,5.365
			c2.958,0,5.364-2.408,5.364-5.365c0-2.506-1.734-4.6-4.06-5.187c0.008-0.061,0.036-0.115,0.036-0.179v-2.684H71.64
			c0.74,0,1.342-0.597,1.342-1.34C72.982,150.582,72.38,149.982,71.64,149.982z"/>
		<path opacity="0.2234" d="M35.042,161.631c0,1.478-1.202,2.684-2.682,2.684s-2.683-1.206-2.683-2.684
			c0-1.481,1.203-2.682,2.683-2.682S35.042,160.15,35.042,161.631z M71.254,150.9h-2.684V95.912h2.684v-8.048H-6.534v8.048h2.682
			V150.9h-2.682c-0.741,0-1.342,0.601-1.342,1.343s0.602,1.34,1.342,1.34H31.02v2.684c0,0.063,0.027,0.118,0.036,0.179
			c-2.326,0.586-4.06,2.68-4.06,5.187c0,2.957,2.405,5.365,5.364,5.365c2.957,0,5.364-2.408,5.364-5.365
			c0-2.507-1.734-4.601-4.06-5.187c0.009-0.061,0.036-0.115,0.036-0.179v-2.684h37.555c0.74,0,1.342-0.598,1.342-1.34
			S71.995,150.9,71.254,150.9z"/>
		<path opacity="0.2128" d="M34.657,162.549c0,1.479-1.202,2.684-2.682,2.684c-1.479,0-2.683-1.205-2.683-2.684
			c0-1.48,1.204-2.682,2.683-2.682C33.455,159.868,34.657,161.069,34.657,162.549z M70.87,151.819h-2.684V96.83h2.684v-8.047H-6.92
			v8.047h2.682v54.989H-6.92c-0.741,0-1.342,0.6-1.342,1.342s0.602,1.34,1.342,1.34h37.554v2.684c0,0.063,0.027,0.118,0.036,0.179
			c-2.327,0.587-4.06,2.68-4.06,5.187c0,2.957,2.405,5.365,5.364,5.365c2.958,0,5.365-2.408,5.365-5.365
			c0-2.507-1.734-4.6-4.061-5.187c0.008-0.061,0.036-0.115,0.036-0.179V154.5H70.87c0.74,0,1.342-0.598,1.342-1.34
			S71.61,151.819,70.87,151.819z"/>
		<path opacity="0.2021" d="M34.271,163.467c0,1.479-1.202,2.684-2.682,2.684c-1.479,0-2.683-1.205-2.683-2.684
			c0-1.48,1.204-2.682,2.683-2.682C33.069,160.786,34.271,161.987,34.271,163.467z M70.484,152.737H67.8V97.748h2.684v-8.047H-7.305
			v8.047h2.682v54.989h-2.682c-0.741,0-1.342,0.6-1.342,1.342s0.602,1.34,1.342,1.34h37.553v2.684c0,0.063,0.028,0.118,0.036,0.179
			c-2.327,0.587-4.06,2.68-4.06,5.187c0,2.957,2.405,5.365,5.364,5.365c2.957,0,5.365-2.408,5.365-5.365
			c0-2.507-1.734-4.6-4.061-5.187c0.009-0.061,0.036-0.115,0.036-0.179v-2.684h37.554c0.74,0,1.342-0.598,1.342-1.34
			S71.224,152.737,70.484,152.737z"/>
		<path opacity="0.1915" d="M33.886,164.385c0,1.479-1.202,2.685-2.681,2.685c-1.48,0-2.684-1.206-2.684-2.685
			c0-1.479,1.204-2.681,2.684-2.681C32.684,161.705,33.886,162.906,33.886,164.385z M70.099,153.655h-2.684V98.667h2.684v-8.048
			H-7.69v8.048h2.682v54.988H-7.69c-0.74,0-1.342,0.6-1.342,1.342s0.602,1.341,1.342,1.341h37.554v2.683
			c0,0.063,0.027,0.118,0.036,0.179c-2.327,0.587-4.061,2.68-4.061,5.187c0,2.958,2.406,5.365,5.365,5.365
			c2.957,0,5.364-2.407,5.364-5.365c0-2.507-1.734-4.6-4.06-5.187c0.008-0.061,0.036-0.115,0.036-0.179v-2.683h37.555
			c0.74,0,1.342-0.599,1.342-1.341S70.839,153.655,70.099,153.655z"/>
		<path opacity="0.1809" d="M33.501,165.304c0,1.479-1.203,2.684-2.682,2.684s-2.683-1.205-2.683-2.684
			c0-1.48,1.203-2.682,2.683-2.682S33.501,163.824,33.501,165.304z M69.713,154.574H67.03v-54.99h2.684v-8.046H-8.075v8.046h2.682
			v54.99h-2.682c-0.741,0-1.342,0.6-1.342,1.342c0,0.741,0.601,1.34,1.342,1.34h37.554v2.684c0,0.063,0.027,0.117,0.036,0.179
			c-2.326,0.587-4.06,2.679-4.06,5.187c0,2.957,2.405,5.365,5.364,5.365c2.958,0,5.364-2.408,5.364-5.365
			c0-2.508-1.734-4.6-4.061-5.187c0.009-0.062,0.037-0.115,0.037-0.179v-2.684h37.554c0.74,0,1.342-0.599,1.342-1.34
			C71.055,155.173,70.454,154.574,69.713,154.574z"/>
		<path opacity="0.1702" d="M33.116,166.222c0,1.479-1.202,2.684-2.682,2.684s-2.684-1.205-2.684-2.684
			c0-1.48,1.204-2.682,2.684-2.682S33.116,164.742,33.116,166.222z M69.329,155.492h-2.684v-54.989h2.684v-8.047h-77.79v8.047h2.682
			v54.989h-2.682c-0.74,0-1.342,0.6-1.342,1.342s0.602,1.34,1.342,1.34h37.554v2.684c0,0.063,0.028,0.118,0.037,0.179
			c-2.327,0.587-4.061,2.68-4.061,5.187c0,2.957,2.406,5.365,5.365,5.365c2.957,0,5.364-2.408,5.364-5.365
			c0-2.507-1.734-4.6-4.061-5.187c0.008-0.061,0.036-0.115,0.036-0.179v-2.684h37.555c0.74,0,1.342-0.598,1.342-1.34
			S70.069,155.492,69.329,155.492z"/>
		<path opacity="0.1596" d="M32.73,167.14c0,1.479-1.203,2.684-2.682,2.684c-1.48,0-2.683-1.205-2.683-2.684
			c0-1.48,1.203-2.682,2.683-2.682C31.528,164.458,32.73,165.66,32.73,167.14z M68.943,156.41h-2.684V101.42h2.684v-8.047H-8.846
			v8.047h2.682v54.989h-2.682c-0.741,0-1.342,0.6-1.342,1.342s0.602,1.34,1.342,1.34h37.553v2.684c0,0.063,0.027,0.118,0.036,0.179
			c-2.326,0.587-4.06,2.68-4.06,5.187c0,2.957,2.405,5.365,5.365,5.365c2.957,0,5.364-2.408,5.364-5.365
			c0-2.507-1.734-4.6-4.061-5.187c0.009-0.061,0.036-0.115,0.036-0.179v-2.684h37.555c0.74,0,1.342-0.598,1.342-1.34
			S69.683,156.41,68.943,156.41z"/>
		<path opacity="0.1489" d="M32.345,168.058c0,1.479-1.202,2.685-2.682,2.685s-2.684-1.206-2.684-2.685
			c0-1.48,1.204-2.682,2.684-2.682S32.345,166.578,32.345,168.058z M68.558,157.328h-2.684v-54.989h2.684v-8.046H-9.231v8.046h2.682
			v54.989h-2.682c-0.741,0-1.342,0.6-1.342,1.342c0,0.743,0.601,1.34,1.342,1.34h37.554v2.684c0,0.063,0.027,0.119,0.036,0.179
			c-2.327,0.587-4.061,2.681-4.061,5.187c0,2.957,2.406,5.365,5.365,5.365c2.957,0,5.364-2.408,5.364-5.365
			c0-2.506-1.734-4.6-4.061-5.187c0.009-0.06,0.036-0.115,0.036-0.179v-2.684h37.555c0.74,0,1.342-0.597,1.342-1.34
			C69.9,157.927,69.298,157.328,68.558,157.328z"/>
		<path opacity="0.1383" d="M31.959,168.977c0,1.478-1.202,2.684-2.681,2.684s-2.683-1.206-2.683-2.684
			c0-1.481,1.204-2.682,2.683-2.682S31.959,167.496,31.959,168.977z M68.173,158.246H65.49v-54.988h2.684V95.21h-77.79v8.047h2.682
			v54.988h-2.682c-0.741,0-1.342,0.6-1.342,1.343c0,0.742,0.602,1.34,1.342,1.34h37.554v2.684c0,0.063,0.027,0.118,0.036,0.179
			c-2.327,0.587-4.06,2.68-4.06,5.187c0,2.957,2.405,5.364,5.365,5.364c2.957,0,5.364-2.407,5.364-5.364
			c0-2.507-1.734-4.6-4.06-5.187c0.009-0.061,0.036-0.115,0.036-0.179v-2.684h37.556c0.739,0,1.342-0.598,1.342-1.34
			C69.515,158.845,68.913,158.246,68.173,158.246z"/>
		<path opacity="0.1277" d="M31.575,169.895c0,1.479-1.202,2.684-2.682,2.684s-2.684-1.205-2.684-2.684
			c0-1.48,1.204-2.682,2.684-2.682S31.575,168.415,31.575,169.895z M67.788,159.165h-2.684v-54.989h2.684v-8.047h-77.789v8.047
			h2.682v54.989h-2.682c-0.741,0-1.342,0.6-1.342,1.342s0.601,1.34,1.342,1.34h37.554v2.684c0,0.063,0.027,0.118,0.036,0.179
			c-2.327,0.587-4.061,2.68-4.061,5.187c0,2.957,2.406,5.365,5.365,5.365c2.957,0,5.364-2.408,5.364-5.365
			c0-2.507-1.734-4.6-4.061-5.187c0.009-0.061,0.036-0.115,0.036-0.179v-2.684h37.555c0.74,0,1.342-0.598,1.342-1.34
			S68.528,159.165,67.788,159.165z"/>
		<path opacity="0.117" d="M31.189,170.813c0,1.479-1.202,2.684-2.682,2.684c-1.48,0-2.683-1.205-2.683-2.684
			c0-1.48,1.203-2.682,2.683-2.682C29.987,168.131,31.189,169.333,31.189,170.813z M67.402,160.083h-2.684v-54.989h2.684v-8.047
			h-77.789v8.047h2.681v54.989h-2.681c-0.741,0-1.342,0.6-1.342,1.342s0.602,1.34,1.342,1.34h37.554v2.684
			c0,0.063,0.027,0.118,0.036,0.179c-2.326,0.587-4.06,2.68-4.06,5.187c0,2.957,2.406,5.365,5.365,5.365
			c2.957,0,5.364-2.408,5.364-5.365c0-2.507-1.734-4.6-4.061-5.187c0.009-0.061,0.037-0.115,0.037-0.179v-2.684h37.554
			c0.74,0,1.343-0.598,1.343-1.34S68.142,160.083,67.402,160.083z"/>
		<path opacity="0.1064" d="M30.804,171.731c0,1.479-1.202,2.685-2.681,2.685s-2.683-1.206-2.683-2.685
			c0-1.479,1.204-2.681,2.683-2.681S30.804,170.251,30.804,171.731z M67.017,161h-2.684v-54.989h2.684v-8.047h-77.789v8.047h2.681
			V161h-2.681c-0.741,0-1.342,0.601-1.342,1.343c0,0.741,0.602,1.339,1.342,1.339h37.554v2.684c0,0.063,0.027,0.119,0.036,0.179
			c-2.327,0.587-4.061,2.681-4.061,5.187c0,2.957,2.405,5.365,5.365,5.365c2.957,0,5.364-2.408,5.364-5.365
			c0-2.506-1.734-4.6-4.061-5.187c0.009-0.06,0.036-0.115,0.036-0.179v-2.684h37.555c0.74,0,1.342-0.598,1.342-1.339
			C68.359,161.601,67.757,161,67.017,161z"/>
		<path opacity="0.0957" d="M30.419,172.65c0,1.479-1.203,2.684-2.682,2.684c-1.479,0-2.683-1.205-2.683-2.684
			c0-1.48,1.204-2.682,2.683-2.682C29.216,169.968,30.419,171.169,30.419,172.65z M66.631,161.919h-2.684V106.93h2.684v-8.047
			h-77.789v8.047h2.681v54.989h-2.681c-0.741,0-1.343,0.6-1.343,1.342s0.602,1.34,1.343,1.34h37.553v2.684
			c0,0.063,0.028,0.118,0.036,0.179c-2.326,0.587-4.06,2.68-4.06,5.187c0,2.957,2.405,5.365,5.365,5.365
			c2.957,0,5.364-2.408,5.364-5.365c0-2.507-1.734-4.6-4.061-5.187c0.009-0.061,0.036-0.115,0.036-0.179v-2.684h37.554
			c0.741,0,1.343-0.598,1.343-1.34S67.373,161.919,66.631,161.919z"/>
		<path opacity="0.0851" d="M30.034,173.568c0,1.479-1.202,2.684-2.682,2.684s-2.683-1.205-2.683-2.684
			c0-1.48,1.204-2.682,2.683-2.682S30.034,172.087,30.034,173.568z M66.247,162.837h-2.684v-54.989h2.684v-8.047h-77.789v8.047
			h2.682v54.989h-2.682c-0.741,0-1.342,0.6-1.342,1.342s0.602,1.34,1.342,1.34h37.554v2.684c0,0.063,0.027,0.118,0.036,0.179
			c-2.327,0.587-4.06,2.68-4.06,5.187c0,2.957,2.405,5.365,5.365,5.365c2.957,0,5.364-2.408,5.364-5.365
			c0-2.507-1.734-4.6-4.061-5.187c0.009-0.061,0.036-0.115,0.036-0.179v-2.684h37.555c0.74,0,1.342-0.598,1.342-1.34
			S66.987,162.837,66.247,162.837z"/>
		<path opacity="0.0745" d="M29.648,174.486c0,1.479-1.202,2.684-2.682,2.684c-1.479,0-2.683-1.205-2.683-2.684
			c0-1.48,1.204-2.682,2.683-2.682C28.446,171.804,29.648,173.005,29.648,174.486z M65.862,163.755h-2.685v-54.989h2.685v-8.047
			h-77.79v8.047h2.681v54.989h-2.681c-0.741,0-1.342,0.6-1.342,1.342s0.602,1.34,1.342,1.34h37.554v2.684
			c0,0.063,0.027,0.118,0.036,0.179c-2.326,0.587-4.06,2.68-4.06,5.187c0,2.957,2.405,5.365,5.364,5.365
			c2.957,0,5.364-2.408,5.364-5.365c0-2.507-1.734-4.6-4.06-5.187c0.009-0.061,0.036-0.115,0.036-0.179v-2.684h37.555
			c0.74,0,1.341-0.598,1.341-1.34S66.602,163.755,65.862,163.755z"/>
		<path opacity="0.0638" d="M29.263,175.404c0,1.479-1.202,2.685-2.682,2.685s-2.683-1.206-2.683-2.685
			c0-1.48,1.204-2.682,2.683-2.682S29.263,173.923,29.263,175.404z M65.476,164.673h-2.684v-54.988h2.684v-8.048h-77.789v8.048
			h2.682v54.988h-2.682c-0.741,0-1.342,0.601-1.342,1.343s0.602,1.34,1.342,1.34h37.554v2.684c0,0.063,0.027,0.117,0.036,0.178
			c-2.327,0.588-4.06,2.68-4.06,5.187c0,2.958,2.405,5.365,5.365,5.365c2.957,0,5.364-2.407,5.364-5.365
			c0-2.507-1.734-4.599-4.061-5.187c0.009-0.061,0.036-0.115,0.036-0.178v-2.684h37.555c0.74,0,1.342-0.598,1.342-1.34
			S66.216,164.673,65.476,164.673z"/>
		<path opacity="0.0532" d="M28.878,176.323c0,1.479-1.202,2.684-2.682,2.684c-1.48,0-2.683-1.205-2.683-2.684
			c0-1.481,1.203-2.682,2.683-2.682C27.676,173.641,28.878,174.841,28.878,176.323z M65.09,165.592h-2.683v-54.989h2.683v-8.047
			h-77.789v8.047h2.682v54.989h-2.682c-0.741,0-1.342,0.6-1.342,1.342s0.602,1.34,1.342,1.34h37.553v2.684
			c0,0.063,0.027,0.118,0.036,0.179c-2.326,0.587-4.06,2.68-4.06,5.187c0,2.957,2.405,5.365,5.365,5.365
			c2.957,0,5.364-2.408,5.364-5.365c0-2.507-1.734-4.6-4.061-5.187c0.009-0.061,0.036-0.115,0.036-0.179v-2.684H65.09
			c0.741,0,1.342-0.598,1.342-1.34S65.832,165.592,65.09,165.592z"/>
		<path opacity="0.0426" d="M28.493,177.241c0,1.479-1.202,2.684-2.682,2.684s-2.683-1.205-2.683-2.684
			c0-1.48,1.204-2.682,2.683-2.682S28.493,175.76,28.493,177.241z M64.706,166.51h-2.684v-54.989h2.684v-8.047h-77.789v8.047h2.682
			v54.989h-2.682c-0.741,0-1.342,0.6-1.342,1.342s0.601,1.34,1.342,1.34H24.47v2.684c0,0.063,0.027,0.118,0.036,0.179
			c-2.327,0.587-4.06,2.68-4.06,5.187c0,2.957,2.405,5.365,5.365,5.365c2.957,0,5.364-2.408,5.364-5.365
			c0-2.507-1.734-4.6-4.061-5.187c0.009-0.061,0.036-0.115,0.036-0.179v-2.684h37.555c0.74,0,1.342-0.598,1.342-1.34
			S65.446,166.51,64.706,166.51z"/>
		<path opacity="0.0319" d="M28.107,178.159c0,1.479-1.203,2.684-2.682,2.684c-1.479,0-2.683-1.205-2.683-2.684
			c0-1.48,1.204-2.682,2.683-2.682C26.905,175.477,28.107,176.678,28.107,178.159z M64.32,167.428h-2.684v-54.989h2.684v-8.047
			h-77.789v8.047h2.682v54.989h-2.682c-0.741,0-1.342,0.6-1.342,1.342s0.602,1.34,1.342,1.34h37.554v2.684
			c0,0.063,0.027,0.118,0.036,0.179c-2.326,0.587-4.06,2.68-4.06,5.187c0,2.957,2.405,5.365,5.365,5.365
			c2.957,0,5.364-2.408,5.364-5.365c0-2.507-1.734-4.6-4.061-5.187c0.009-0.061,0.036-0.115,0.036-0.179v-2.684H64.32
			c0.741,0,1.342-0.598,1.342-1.34S65.061,167.428,64.32,167.428z"/>
		<path opacity="0.0213" d="M27.722,179.077c0,1.479-1.202,2.685-2.682,2.685s-2.683-1.206-2.683-2.685
			c0-1.479,1.204-2.682,2.683-2.682S27.722,177.597,27.722,179.077z M63.935,168.346h-2.684v-54.989h2.684v-8.046h-77.789v8.046
			h2.682v54.989h-2.682c-0.741,0-1.342,0.601-1.342,1.343c0,0.741,0.602,1.339,1.342,1.339H23.7v2.684
			c0,0.063,0.027,0.118,0.036,0.179c-2.327,0.588-4.06,2.681-4.06,5.187c0,2.958,2.405,5.366,5.365,5.366
			c2.957,0,5.364-2.408,5.364-5.366c0-2.506-1.734-4.599-4.061-5.187c0.009-0.061,0.036-0.115,0.036-0.179v-2.684h37.555
			c0.74,0,1.342-0.598,1.342-1.339C65.277,168.947,64.675,168.346,63.935,168.346z"/>
		<path opacity="0.0106" d="M27.337,179.996c0,1.479-1.202,2.684-2.682,2.684s-2.683-1.205-2.683-2.684
			c0-1.48,1.204-2.683,2.683-2.683S27.337,178.515,27.337,179.996z M63.55,169.265h-2.684v-54.989h2.684v-8.047h-77.79v8.047h2.682
			v54.989h-2.682c-0.741,0-1.342,0.599-1.342,1.341s0.602,1.341,1.342,1.341h37.554v2.684c0,0.063,0.027,0.117,0.036,0.179
			c-2.326,0.587-4.06,2.679-4.06,5.187c0,2.957,2.405,5.365,5.365,5.365c2.957,0,5.364-2.408,5.364-5.365
			c0-2.508-1.734-4.6-4.061-5.187c0.009-0.062,0.036-0.115,0.036-0.179v-2.684H63.55c0.74,0,1.341-0.599,1.341-1.341
			S64.291,169.265,63.55,169.265z"/>
		<path opacity="0" d="M26.952,180.914c0,1.479-1.202,2.684-2.682,2.684s-2.683-1.205-2.683-2.684c0-1.48,1.204-2.682,2.683-2.682
			S26.952,179.433,26.952,180.914z M63.165,170.183h-2.684v-54.989h2.684v-8.047h-77.789v8.047h2.682v54.989h-2.682
			c-0.741,0-1.342,0.6-1.342,1.342s0.602,1.34,1.342,1.34h37.554v2.684c0,0.063,0.027,0.118,0.036,0.179
			c-2.327,0.587-4.06,2.68-4.06,5.187c0,2.957,2.405,5.365,5.365,5.365c2.957,0,5.364-2.408,5.364-5.365
			c0-2.507-1.734-4.6-4.061-5.187c0.009-0.061,0.036-0.115,0.036-0.179v-2.684h37.555c0.74,0,1.342-0.598,1.342-1.34
			S63.905,170.183,63.165,170.183z"/>
	</g>
</g>
<g>
	<rect x="21.588" y="20.834" fill="#333333" width="77.789" height="8.047"/>
	<rect x="24.27" y="28.881" fill="#FFFFFF" width="72.424" height="56.331"/>
	<path fill="#999999" d="M92.671,55.67h-17.4v-17.4l0,0C84.88,38.27,92.671,46.062,92.671,55.67L92.671,55.67z"/>
	<path fill="#666666" d="M71.177,42.365c-9.609,0-17.4,7.789-17.4,17.399c0,9.608,7.791,17.401,17.4,17.401
		c9.608,0,17.401-7.793,17.401-17.401H71.177V42.365z"/>
	<path fill="#CCCCCC" d="M39.024,55.707H28.294c-0.742,0-1.342-0.6-1.342-1.343c0-0.741,0.601-1.341,1.342-1.341h10.729
		c0.74,0,1.341,0.6,1.341,1.341C40.365,55.107,39.764,55.707,39.024,55.707z"/>
	<path fill="#CCCCCC" d="M30.976,50.34c-0.74,0-1.34-0.599-1.34-1.341v-5.365c0-0.741,0.601-1.341,1.34-1.341
		c0.742,0,1.341,0.6,1.341,1.341V49C32.316,49.742,31.717,50.34,30.976,50.34z"/>
	<path fill="#CCCCCC" d="M35,50.34c-0.74,0-1.341-0.599-1.341-1.341v-5.365c0-0.741,0.601-1.341,1.341-1.341s1.341,0.6,1.341,1.341
		V49C36.34,49.742,35.739,50.34,35,50.34z"/>
	<path fill="#CCCCCC" d="M45.731,67.777c-0.473,0-0.929-0.25-1.174-0.691l-6.706-12.071c-0.361-0.645-0.126-1.463,0.521-1.822
		c0.648-0.362,1.464-0.125,1.824,0.523l6.706,12.069c0.362,0.646,0.127,1.465-0.519,1.822
		C46.175,67.722,45.951,67.777,45.731,67.777z"/>
	<path fill="#CCCCCC" d="M61.823,67.777H45.729c-0.74,0-1.341-0.598-1.341-1.342c0-0.742,0.601-1.342,1.341-1.342h16.093
		c0.742,0,1.342,0.6,1.342,1.342C63.165,67.179,62.565,67.777,61.823,67.777z"/>
	<path fill="#333333" d="M99.377,86.552H21.588c-0.741,0-1.342-0.598-1.342-1.34s0.602-1.342,1.342-1.342h77.789
		c0.74,0,1.342,0.6,1.342,1.342S100.118,86.552,99.377,86.552z"/>
	<path fill="#333333" d="M60.483,90.578c-0.74,0-1.341-0.6-1.341-1.342v-4.023c0-0.742,0.601-1.342,1.341-1.342
		c0.739,0,1.34,0.6,1.34,1.342v4.023C61.823,89.978,61.222,90.578,60.483,90.578z"/>
	<path fill="#333333" d="M60.483,99.966c-2.959,0-5.365-2.408-5.365-5.365c0-2.959,2.405-5.365,5.365-5.365
		c2.957,0,5.364,2.406,5.364,5.365C65.847,97.558,63.44,99.966,60.483,99.966z M60.483,91.919c-1.479,0-2.683,1.201-2.683,2.682
		c0,1.479,1.204,2.684,2.683,2.684s2.682-1.205,2.682-2.684C63.165,93.121,61.962,91.919,60.483,91.919z"/>
</g>
</svg>
