<?xml version="1.0" encoding="utf-8"?>
<!-- Generator: Adobe Illustrator 16.0.0, SVG Export Plug-In . SVG Version: 6.00 Build 0)  -->
<!DOCTYPE svg PUBLIC "-//W3C//DTD SVG 1.1//EN" "http://www.w3.org/Graphics/SVG/1.1/DTD/svg11.dtd">
<svg version="1.1" id="Layer_1" xmlns="http://www.w3.org/2000/svg" xmlns:xlink="http://www.w3.org/1999/xlink" x="0px" y="0px"
	 width="80px" height="80px" viewBox="0 0 300 300" enable-background="new 0 0 300 300" xml:space="preserve">
<path fill="#cccccc" d="M169.8,238.8L150,258.6l-19.8-19.8c-2.4-2.399-6-2.399-8.4,0c-2.4,2.4-2.4,6,0,8.4l24,24c1.2,1.2,2.7,1.8,4.2,1.8
	s3-0.6,4.2-1.8l24-24c2.399-2.4,2.399-6,0-8.4C175.8,236.4,172.2,236.4,169.8,238.8z">
	
	
	</path>
<path fill="#cccccc" d="M178.2,205.8c-2.4-2.399-6-2.399-8.4,0L150,225.6l-19.8-19.8c-2.4-2.399-6-2.399-8.4,0c-2.4,2.4-2.4,6,0,8.4l24,24
	c1.2,1.2,2.7,1.8,4.2,1.8s3-0.6,4.2-1.8l24-24C180.6,211.8,180.6,208.2,178.2,205.8z"/>

</svg>