<?xml version="1.0" encoding="utf-8"?>
<!-- Generator: Adobe Illustrator 16.0.0, SVG Export Plug-In . SVG Version: 6.00 Build 0)  -->
<!DOCTYPE svg PUBLIC "-//W3C//DTD SVG 1.1//EN" "http://www.w3.org/Graphics/SVG/1.1/DTD/svg11.dtd">
<svg version="1.1" id="Layer_1" xmlns="http://www.w3.org/2000/svg" xmlns:xlink="http://www.w3.org/1999/xlink" x="0px" y="0px"
	 width="80px" height="80px" viewBox="0 0 300 300" enable-background="new 0 0 300 300" xml:space="preserve">
<path fill="#CCCCCC" d="M204,135V81c0-29.7-24.3-54-54-54S96,51.3,96,81v54c0,29.7,24.3,54,54,54S204,164.7,204,135z M150,177
	c-23.1,0-42-18.9-42-42V81c0-23.1,18.9-42,42-42c23.1,0,42,18.9,42,42v54C192,158.1,173.1,177,150,177z"/>
<path fill="#CCCCCC" d="M150,60c-3.3,0-6,2.7-6,6v18c0,3.3,2.7,6,6,6s6-2.7,6-6V66C156,62.7,153.3,60,150,60z">

<animateTransform attributeName="transform"
                          attributeType="XML"
                          type="translate"
                          dur="1s"
						  values="0,15;0,-15;0,15"
                          repeatCount="indefinite"/>

</path>

</svg>