<?xml version="1.0" encoding="utf-8"?>
<!-- Generator: Adobe Illustrator 16.0.0, SVG Export Plug-In . SVG Version: 6.00 Build 0)  -->
<!DOCTYPE svg PUBLIC "-//W3C//DTD SVG 1.1//EN" "http://www.w3.org/Graphics/SVG/1.1/DTD/svg11.dtd">
<svg version="1.1" id="Layer_1" xmlns="http://www.w3.org/2000/svg" xmlns:xlink="http://www.w3.org/1999/xlink" x="0px" y="0px"
	 width="300px" height="300px" viewBox="0 0 300 300" enable-background="new 0 0 300 300" xml:space="preserve">
<g>
	<g>
		<circle opacity="0.8" fill="#575757" enable-background="new    " cx="149.514" cy="150.606" r="124.37"/>
		<g>
			<path fill="#FDB62B" d="M149.806,267.619c-64.523,0-117.015-52.493-117.015-117.017c0-64.521,52.491-117.016,117.015-117.016
				c64.524,0,117.014,52.496,117.014,117.016C266.818,215.126,214.328,267.619,149.806,267.619L149.806,267.619z M149.806,36.874
				c-62.707,0-113.732,51.019-113.732,113.728c0,62.707,51.025,113.724,113.732,113.724c62.708,0,113.724-51.017,113.724-113.724
				C263.529,87.894,212.514,36.874,149.806,36.874L149.806,36.874z"/>
		</g>
		<g>
			<g>
				<polygon fill="#FDB62B" points="149.703,55.322 152.265,60.513 157.993,61.343 153.85,65.386 154.826,71.096 149.703,68.399 
					144.575,71.096 145.556,65.386 141.41,61.343 147.14,60.513 				"/>
				<polygon fill="#FDB62B" points="169.902,58.28 171.313,62.062 175.228,63.046 172.064,65.558 172.341,69.585 168.976,67.354 
					165.229,68.859 166.312,64.97 163.72,61.873 167.756,61.7 				"/>
				<polygon fill="#FDB62B" points="129.185,58.28 127.775,62.062 123.857,63.046 127.021,65.558 126.748,69.585 130.11,67.354 
					133.859,68.859 132.776,64.97 135.364,61.873 131.333,61.7 				"/>
			</g>
		</g>
		<polygon fill="#FDB62B" points="149.703,240.792 152.265,245.98 157.993,246.813 153.85,250.855 154.826,256.566 149.703,253.868 
			144.575,256.566 145.556,250.855 141.41,246.813 147.14,245.98 		"/>
		<polygon fill="#FDB62B" points="128.972,242.017 130.379,245.799 134.298,246.783 131.135,249.294 131.407,253.321 
			128.045,251.092 124.297,252.597 125.379,248.706 122.791,245.607 126.822,245.438 		"/>
		<polygon fill="#FDB62B" points="171.892,242.007 170.483,245.787 166.564,246.773 169.73,249.284 169.454,253.313 172.819,251.08 
			176.565,252.589 175.483,248.696 178.072,245.601 174.039,245.428 		"/>
	</g>
	<g>
		<path fill="#FFFFFF" d="M82.94,115.317h2.863l4.338,10.932l4.38-10.932h2.907l-5.378,13.144l5.898,13.924l11.147-27.283h3.296
			l-13.055,30.796h-2.69l-6.463-15.224l-6.506,15.224h-2.646l-13.013-30.797h3.253l11.191,27.283l5.856-13.924L82.94,115.317z"/>
		<path fill="#FFFFFF" d="M137.419,143.208v2.689h-20.69v-30.796h20.3v2.689h-17.263v11.104h15.051v2.56h-15.051v11.754
			L137.419,143.208L137.419,143.208z"/>
		<path fill="#FFFFFF" d="M162.402,115.101h2.561l12.796,30.796h-3.211l-3.989-9.629h-13.837l-3.948,9.629h-3.252L162.402,115.101z
			 M169.864,133.882l-6.202-15.224l-6.288,15.224H169.864z"/>
		<path fill="#FFFFFF" d="M182.182,145.897v-30.796h13.014c1.329,0,2.552,0.282,3.663,0.846c1.114,0.564,2.076,1.301,2.887,2.212
			c0.809,0.91,1.438,1.945,1.887,3.102s0.671,2.328,0.671,3.513c0,1.126-0.166,2.205-0.499,3.231
			c-0.332,1.027-0.795,1.952-1.388,2.775c-0.593,0.825-1.31,1.519-2.147,2.083c-0.838,0.563-1.779,0.947-2.819,1.148l7.547,11.886
			h-3.426l-7.243-11.365h-9.11v11.365H182.182z M185.219,131.845h10.063c0.896,0,1.714-0.196,2.451-0.585
			c0.737-0.39,1.367-0.918,1.888-1.583c0.52-0.665,0.923-1.416,1.213-2.255c0.289-0.838,0.435-1.719,0.435-2.646
			c0-0.926-0.168-1.815-0.5-2.668c-0.332-0.853-0.78-1.597-1.345-2.234c-0.564-0.636-1.23-1.142-1.995-1.518
			c-0.768-0.376-1.57-0.564-2.409-0.564h-9.802v14.054H185.219z"/>
		<path fill="#FFFFFF" d="M231.195,143.208v2.689h-20.689v-30.796h20.3v2.689h-17.263v11.104h15.051v2.56h-15.051v11.754
			L231.195,143.208L231.195,143.208z"/>
		<path fill="#FFFFFF" d="M105.28,155.766v30.796h-5.942v-13.143H85.37v13.143h-5.987v-30.796h5.987v12.448h13.968v-12.448H105.28z"
			/>
		<path fill="#FFFFFF" d="M111.699,186.562v-30.796h5.985v30.796H111.699z"/>
		<path fill="#FFFFFF" d="M124.104,186.562v-30.796h13.619c1.417,0,2.726,0.297,3.926,0.888c1.199,0.594,2.234,1.374,3.102,2.342
			c0.867,0.97,1.546,2.068,2.038,3.297c0.491,1.23,0.737,2.465,0.737,3.709c0,1.996-0.499,3.81-1.497,5.444
			c-0.997,1.635-2.349,2.812-4.056,3.534L149,186.562h-6.723l-6.29-10.325h-5.898v10.325H124.104L124.104,186.562z M130.088,170.991
			h7.504c0.549,0,1.064-0.131,1.54-0.391c0.477-0.261,0.889-0.614,1.237-1.063c0.348-0.448,0.621-0.977,0.824-1.585
			c0.202-0.604,0.304-1.256,0.304-1.951c0-0.723-0.117-1.388-0.347-1.996c-0.231-0.607-0.542-1.133-0.932-1.581
			c-0.39-0.449-0.839-0.795-1.345-1.042c-0.506-0.245-1.019-0.368-1.539-0.368h-7.245V170.991z"/>
		<path fill="#FFFFFF" d="M152.948,186.562v-30.796h5.985v30.796H152.948z"/>
		<path fill="#FFFFFF" d="M171.34,166.826v19.737h-5.987v-30.797h4.641l16.049,20.213v-20.172h5.985v30.754h-4.857L171.34,166.826z"
			/>
		<path fill="#FFFFFF" d="M219.832,183.093c-2.459,2.458-5.321,3.687-8.588,3.687c-2.025,0-3.927-0.405-5.704-1.216
			c-1.779-0.808-3.326-1.922-4.642-3.339c-1.317-1.416-2.357-3.087-3.123-5.01c-0.767-1.922-1.149-3.996-1.149-6.224
			c0-2.112,0.383-4.1,1.149-5.965c0.766-1.865,1.821-3.499,3.166-4.901c1.345-1.403,2.928-2.517,4.75-3.341
			c1.821-0.823,3.802-1.236,5.941-1.236c2.891,0,5.372,0.608,7.44,1.821c2.066,1.215,3.621,2.85,4.663,4.902l-4.469,3.296
			c-0.78-1.533-1.872-2.702-3.274-3.512c-1.403-0.811-2.929-1.216-4.576-1.216c-1.302,0-2.494,0.275-3.579,0.825
			c-1.084,0.549-2.009,1.302-2.776,2.256c-0.766,0.954-1.358,2.054-1.777,3.296c-0.42,1.244-0.629,2.559-0.629,3.948
			c0,1.445,0.23,2.797,0.695,4.056c0.463,1.257,1.099,2.349,1.908,3.273c0.809,0.926,1.771,1.656,2.884,2.193
			c1.112,0.534,2.322,0.801,3.622,0.801c2.978,0,5.668-1.401,8.068-4.209v-2.168h-6.202v-4.379h11.146v15.831h-4.945
			L219.832,183.093L219.832,183.093z"/>
	</g>
	<g>
		
			<circle fill="none" stroke="#FFFFFF" stroke-width="14.5334" stroke-miterlimit="10" stroke-dasharray="72.3009,25.5455" cx="149.514" cy="150.606" r="140.149">
		
			<animateTransform  type="rotate" fill="remove" restart="always" calcMode="linear" additive="replace" accumulate="none" repeatDur="indefinite" dur="15s" to="360 150 150" from="0 150 150" attributeName="transform">
			</animateTransform>
		</circle>
	</g>
</g>
</svg>
