<svg height='300px' width='300px'  fill="#000000" xmlns="http://www.w3.org/2000/svg" xmlns:xlink="http://www.w3.org/1999/xlink" xml:space="preserve" version="1.1" style="shape-rendering:geometricPrecision;text-rendering:geometricPrecision;image-rendering:optimizeQuality;" viewBox="0 0 392 392" x="0px" y="0px" fill-rule="evenodd" clip-rule="evenodd"><defs><style type="text/css">
   
    .fil0 {fill:#000000;fill-rule:nonzero}
   
  </style></defs><g><path class="fil0" d="M106 202c-11,-11 6,-29 18,-17l45 45 100 -99c11,-12 29,6 17,17l-117 117 -63 -63z"></path><path class="fil0" d="M196 0c108,0 196,88 196,196 0,108 -88,196 -196,196 -108,0 -196,-88 -196,-196 0,-108 88,-196 196,-196zm0 25c-95,0 -171,76 -171,171 0,95 76,171 171,171 95,0 171,-76 171,-171 0,-95 -76,-171 -171,-171z"></path></g></svg>