<svg height='300px' width='300px'  fill="#000000" xmlns="http://www.w3.org/2000/svg" xmlns:xlink="http://www.w3.org/1999/xlink" version="1.1" x="0px" y="0px" viewBox="0 0 130 130" style="enable-background:new 0 0 130 130;" xml:space="preserve"><g><path d="M14.2177734,98.3110352h7.875c0.5522461,0,1-0.4472656,1-1s-0.4477539-1-1-1h-7.875c-0.5522461,0-1,0.4472656-1,1   S13.6655273,98.3110352,14.2177734,98.3110352z"></path><path d="M125.9985352,9.5424805H4.0019531C1.7954102,9.5424805,0,11.3374023,0,13.5444336v88.1630859   c0,2.2070313,1.7954102,4.0019531,4.0019531,4.0019531h48.6870728l-8.8067017,13.1923828   c-0.2050781,0.3076172-0.2241211,0.7021484-0.050293,1.0273438s0.5126953,0.5283203,0.8818359,0.5283203h40.5722656   c0.3691406,0,0.7080078-0.203125,0.8818359-0.5283203s0.1547852-0.7197266-0.050293-1.0273438l-8.8067017-13.1923828h48.687561   c2.206543,0,4.0014648-1.7949219,4.0014648-4.0019531V13.5444336C130,11.3374023,128.2050781,9.5424805,125.9985352,9.5424805z    M83.4160156,118.4575195H46.5839844l8.5039063-12.7392578h19.8242188L83.4160156,118.4575195z M128,101.7075195   c0,1.1035156-0.8979492,2.0019531-2.0014648,2.0019531H4.0019531C2.8979492,103.7094727,2,102.8110352,2,101.7075195V90.9047852   h126V101.7075195z M128,88.9047852H2V13.5444336c0-1.1035156,0.8979492-2.0019531,2.0019531-2.0019531h121.996582   c1.1035156,0,2.0014648,0.8984375,2.0014648,2.0019531V88.9047852z"></path><path d="M89.9003906,23.3266602H40.0996094c-0.5522461,0-1,0.4472656-1,1v46.2646484   c0,3.7041016,3.0136719,6.7177734,6.7177734,6.7177734h38.3652344c3.7041016,0,6.7177734-3.0136719,6.7177734-6.7177734V24.3266602   C90.9003906,23.7739258,90.4526367,23.3266602,89.9003906,23.3266602z M88.9003906,70.5913086   c0,2.6015625-2.1162109,4.7177734-4.7177734,4.7177734H45.8173828c-2.6015625,0-4.7177734-2.1162109-4.7177734-4.7177734   V25.3266602h47.8007813V70.5913086z"></path><path d="M51.5532227,40.557373v6.032959c0,7.4140625,6.0322266,13.4462891,13.4467773,13.4462891   s13.4467773-6.0322266,13.4467773-13.4462891v-6.032959c2.244751-0.463623,3.9375-2.4550781,3.9375-4.8342285   c0-2.7226563-2.2148438-4.9384766-4.9375-4.9384766s-4.9375,2.2158203-4.9375,4.9384766   c0,2.3791504,1.692749,4.3706055,3.9375,4.8342285v6.032959c0,6.3115234-5.1347656,11.4462891-11.4467773,11.4462891   S53.5532227,52.9018555,53.5532227,46.590332v-6.032959c2.244751-0.463623,3.9375-2.4550781,3.9375-4.8342285   c0-2.7226563-2.2148438-4.9384766-4.9375-4.9384766s-4.9375,2.2158203-4.9375,4.9384766   C47.6157227,38.1022949,49.3084717,40.09375,51.5532227,40.557373z M74.5092773,35.7231445   c0-1.6201172,1.3178711-2.9384766,2.9375-2.9384766s2.9375,1.3183594,2.9375,2.9384766   c0,1.6191406-1.3178711,2.9365234-2.9375,2.9365234S74.5092773,37.3422852,74.5092773,35.7231445z M52.5532227,32.784668   c1.6196289,0,2.9375,1.3183594,2.9375,2.9384766c0,1.6191406-1.3178711,2.9365234-2.9375,2.9365234   s-2.9375-1.3173828-2.9375-2.9365234C49.6157227,34.1030273,50.9335938,32.784668,52.5532227,32.784668z"></path></g></svg>