<svg height='300px' width='300px'  fill="#000000" xmlns="http://www.w3.org/2000/svg" xmlns:xlink="http://www.w3.org/1999/xlink" version="1.1" x="0px" y="0px" viewBox="0 0 64 64" style="enable-background:new 0 0 64 64;" xml:space="preserve"><g><path d="M53,29h4.184c0.414,1.161,1.514,2,2.816,2c1.654,0,3-1.346,3-3s-1.346-3-3-3c-1.302,0-2.402,0.839-2.816,2H53v-2.586   L56.414,21h0.77c0.414,1.161,1.514,2,2.816,2c1.654,0,3-1.346,3-3s-1.346-3-3-3c-1.302,0-2.402,0.839-2.816,2H56   c-0.265,0-0.52,0.105-0.707,0.293L53,21.586V16c0-2.757-2.243-5-5-5h-5.586l2.293-2.293C44.895,8.52,45,8.266,45,8V6.816   C46.161,6.402,47,5.302,47,4c0-1.654-1.346-3-3-3s-3,1.346-3,3c0,1.302,0.839,2.402,2,2.816v0.77l-2.707,2.707   C40.105,10.48,40,10.734,40,11h-3V8.816C38.161,8.402,39,7.302,39,6c0-1.654-1.346-3-3-3s-3,1.346-3,3c0,1.302,0.839,2.402,2,2.816   V11h-6V6.816C30.161,6.402,31,5.302,31,4c0-1.654-1.346-3-3-3s-3,1.346-3,3c0,1.302,0.839,2.402,2,2.816V11h-2.586L21,7.586v-0.77   C22.161,6.402,23,5.302,23,4c0-1.654-1.346-3-3-3s-3,1.346-3,3c0,1.302,0.839,2.402,2,2.816V8c0,0.266,0.105,0.52,0.293,0.707   L21.586,11H16c-2.757,0-5,2.243-5,5v5.586l-2.293-2.293C8.52,19.105,8.265,19,8,19H6.816C6.402,17.839,5.302,17,4,17   c-1.654,0-3,1.346-3,3s1.346,3,3,3c1.302,0,2.402-0.839,2.816-2h0.77L11,24.414V27H6.816C6.402,25.839,5.302,25,4,25   c-1.654,0-3,1.346-3,3s1.346,3,3,3c1.302,0,2.402-0.839,2.816-2H11v6H8.816C8.402,33.839,7.302,33,6,33c-1.654,0-3,1.346-3,3   s1.346,3,3,3c1.302,0,2.402-0.839,2.816-2H11v3c-0.265,0-0.52,0.105-0.707,0.293L7.586,43h-0.77C6.402,41.839,5.302,41,4,41   c-1.654,0-3,1.346-3,3s1.346,3,3,3c1.302,0,2.402-0.839,2.816-2H8c0.265,0,0.52-0.105,0.707-0.293L11,42.414V48   c0,2.757,2.243,5,5,5h5v-2h-5c-1.654,0-3-1.346-3-3V16c0-1.654,1.346-3,3-3h32c1.654,0,3,1.346,3,3v32c0,1.654-1.346,3-3,3h-5v2h5   c2.757,0,5-2.243,5-5v-5.586l2.293,2.293C55.48,44.895,55.735,45,56,45h1.184c0.414,1.161,1.514,2,2.816,2c1.654,0,3-1.346,3-3   s-1.346-3-3-3c-1.302,0-2.402,0.839-2.816,2h-0.77l-2.707-2.707C53.52,40.105,53.265,40,53,40v-3h2.184   c0.414,1.161,1.514,2,2.816,2c1.654,0,3-1.346,3-3s-1.346-3-3-3c-1.302,0-2.402,0.839-2.816,2H53V29z M60,27c0.551,0,1,0.448,1,1   s-0.449,1-1,1s-1-0.448-1-1S59.449,27,60,27z M60,19c0.551,0,1,0.448,1,1s-0.449,1-1,1s-1-0.448-1-1S59.449,19,60,19z M44,3   c0.551,0,1,0.448,1,1s-0.449,1-1,1s-1-0.448-1-1S43.449,3,44,3z M36,5c0.551,0,1,0.448,1,1s-0.449,1-1,1s-1-0.448-1-1   S35.449,5,36,5z M28,3c0.551,0,1,0.448,1,1s-0.449,1-1,1s-1-0.448-1-1S27.449,3,28,3z M20,3c0.551,0,1,0.448,1,1s-0.449,1-1,1   s-1-0.448-1-1S19.449,3,20,3z M4,21c-0.551,0-1-0.448-1-1s0.449-1,1-1s1,0.448,1,1S4.551,21,4,21z M4,29c-0.551,0-1-0.448-1-1   s0.449-1,1-1s1,0.448,1,1S4.551,29,4,29z M6,37c-0.551,0-1-0.448-1-1s0.449-1,1-1s1,0.448,1,1S6.551,37,6,37z M4,45   c-0.551,0-1-0.448-1-1s0.449-1,1-1s1,0.448,1,1S4.551,45,4,45z M60,43c0.551,0,1,0.448,1,1s-0.449,1-1,1s-1-0.448-1-1   S59.449,43,60,43z M58,35c0.551,0,1,0.448,1,1s-0.449,1-1,1s-1-0.448-1-1S57.449,35,58,35z"></path><path d="M39,47.383c5.489-2.673,9-8.247,9-14.383c0-8.822-7.178-16-16-16s-16,7.178-16,16c0,6.136,3.511,11.71,9,14.383V49h-2v2h2   v2h-2v2h2v3c0,0.553,0.448,1,1,1h1.101c0.465,2.279,2.484,4,4.899,4s4.434-1.721,4.899-4H38c0.552,0,1-0.447,1-1v-3h2v-2h-2v-2h2   v-2h-2V47.383z M26.4,45.827c-4.164-1.821-7.124-5.51-8.073-9.827h3.857c0.414,1.161,1.514,2,2.816,2c1.654,0,3-1.346,3-3   s-1.346-3-3-3c-1.302,0-2.402,0.839-2.816,2h-4.147C18.013,33.669,18,33.336,18,33c0-0.576,0.046-1.141,0.114-1.7l3.3-3.3h2.77   c0.414,1.161,1.514,2,2.816,2c1.654,0,3-1.346,3-3s-1.346-3-3-3c-1.302,0-2.402,0.839-2.816,2H21c-0.265,0-0.52,0.105-0.707,0.293   l-1.124,1.124C21.33,22.47,26.265,19,32,19s10.67,3.47,12.831,8.417l-1.124-1.124C43.52,26.105,43.265,26,43,26h-3.184   c-0.414-1.161-1.514-2-2.816-2c-1.654,0-3,1.346-3,3s1.346,3,3,3c1.302,0,2.402-0.839,2.816-2h2.77l3.3,3.3   C45.954,31.859,46,32.424,46,33c0,0.336-0.013,0.669-0.037,1h-4.147c-0.414-1.161-1.514-2-2.816-2c-1.654,0-3,1.346-3,3   s1.346,3,3,3c1.302,0,2.402-0.839,2.816-2h3.857c-0.949,4.317-3.909,8.006-8.073,9.827c-0.364,0.159-0.6,0.519-0.6,0.916V49h-4   v-6.184c1.161-0.414,2-1.514,2-2.816c0-1.654-1.346-3-3-3s-3,1.346-3,3c0,1.302,0.839,2.402,2,2.816V49h-4v-2.257   C27,46.346,26.765,45.986,26.4,45.827z M24,35c0-0.552,0.449-1,1-1s1,0.448,1,1s-0.449,1-1,1S24,35.552,24,35z M26,27   c0-0.552,0.449-1,1-1s1,0.448,1,1s-0.449,1-1,1S26,27.552,26,27z M38,27c0,0.552-0.449,1-1,1s-1-0.448-1-1s0.449-1,1-1   S38,26.448,38,27z M40,35c0,0.552-0.449,1-1,1s-1-0.448-1-1s0.449-1,1-1S40,34.448,40,35z M31,40c0-0.552,0.449-1,1-1s1,0.448,1,1   s-0.449,1-1,1S31,40.552,31,40z M32,61c-1.302,0-2.402-0.839-2.816-2h5.631C34.402,60.161,33.302,61,32,61z M37,57H27v-2h10V57z    M37,53H27v-2h10V53z"></path></g></svg>