<svg height='300px' width='300px'  fill="#000000" xmlns="http://www.w3.org/2000/svg" xmlns:xlink="http://www.w3.org/1999/xlink" viewBox="0 0 58 68" version="1.1" x="0px" y="0px"><title>hotel, hospitality, building, luxury, rating, star, five</title><desc>Created with Sketch.</desc><g stroke="none" stroke-width="1" fill="none" fill-rule="evenodd"><g transform="translate(-541.000000, -655.000000)" fill="#000000"><path d="M591,723 L549,723 C548.447715,723 548,722.552285 548,722 L548,686 C548,685.447715 548.447715,685 549,685 L566,685 L566,680 C566,679.447715 566.447715,679 567,679 L591,679 C591.552285,679 592,679.447715 592,680 L592,722 C592,722.552285 591.552285,723 591,723 Z M584,721 L590,721 L590,681 L568,681 L568,721 L574,721 L574,710 C574,709.447715 574.447715,709 575,709 L583,709 C583.552285,709 584,709.447715 584,710 L584,721 Z M566,721 L566,687 L550,687 L550,721 L566,721 Z M576,721 L582,721 L582,711 L576,711 L576,721 Z M573,703 C572.447715,703 572,702.552285 572,702 C572,701.447715 572.447715,701 573,701 L576,701 C576.552285,701 577,701.447715 577,702 C577,702.552285 576.552285,703 576,703 L573,703 Z M582,703 C581.447715,703 581,702.552285 581,702 C581,701.447715 581.447715,701 582,701 L585,701 C585.552285,701 586,701.447715 586,702 C586,702.552285 585.552285,703 585,703 L582,703 Z M573,689 C572.447715,689 572,688.552285 572,688 C572,687.447715 572.447715,687 573,687 L576,687 C576.552285,687 577,687.447715 577,688 C577,688.552285 576.552285,689 576,689 L573,689 Z M582,689 C581.447715,689 581,688.552285 581,688 C581,687.447715 581.447715,687 582,687 L585,687 C585.552285,687 586,687.447715 586,688 C586,688.552285 585.552285,689 585,689 L582,689 Z M573,696 C572.447715,696 572,695.552285 572,695 C572,694.447715 572.447715,694 573,694 L576,694 C576.552285,694 577,694.447715 577,695 C577,695.552285 576.552285,696 576,696 L573,696 Z M582,696 C581.447715,696 581,695.552285 581,695 C581,694.447715 581.447715,694 582,694 L585,694 C585.552285,694 586,694.447715 586,695 C586,695.552285 585.552285,696 585,696 L582,696 Z M555,714 C554.447715,714 554,713.552285 554,713 C554,712.447715 554.447715,712 555,712 L561,712 C561.552285,712 562,712.447715 562,713 C562,713.552285 561.552285,714 561,714 L555,714 Z M555,705 C554.447715,705 554,704.552285 554,704 C554,703.447715 554.447715,703 555,703 L561,703 C561.552285,703 562,703.447715 562,704 C562,704.552285 561.552285,705 561,705 L555,705 Z M555,696 C554.447715,696 554,695.552285 554,695 C554,694.447715 554.447715,694 555,694 L561,694 C561.552285,694 562,694.447715 562,695 C562,695.552285 561.552285,696 561,696 L555,696 Z M580.526415,668.930216 C579.792787,669.315907 578.935355,668.692946 579.075465,667.87604 L579.547878,665.121662 L577.546706,663.171001 C576.953189,662.592465 577.280699,661.584493 578.100919,661.465308 L580.866471,661.06345 L582.103264,658.557434 C582.470078,657.814189 583.529922,657.814189 583.896736,658.557434 L585.133529,661.06345 L587.899081,661.465308 C588.719301,661.584493 589.046811,662.592465 588.453294,663.171001 L586.452122,665.121662 L586.924535,667.87604 C587.064645,668.692946 586.207213,669.315907 585.473585,668.930216 L583,667.629776 L580.526415,668.930216 Z M582.534659,665.614869 C582.825983,665.46171 583.174017,665.46171 583.465341,665.614869 L584.610795,666.217069 L584.392033,664.941588 C584.336395,664.617193 584.443944,664.286193 584.67963,664.056456 L585.606321,663.153155 L584.325665,662.967065 C583.999955,662.919736 583.718389,662.715167 583.572727,662.420023 L583,661.259551 L582.427273,662.420023 C582.281611,662.715167 582.000045,662.919736 581.674335,662.967065 L580.393679,663.153155 L581.32037,664.056456 C581.556056,664.286193 581.663605,664.617193 581.607967,664.941588 L581.389205,666.217069 L582.534659,665.614869 Z M566.93863,667.739233 C566.205002,668.124924 565.34757,667.501963 565.48768,666.685057 L566.07235,663.276171 L563.595649,660.861984 C563.002132,660.283448 563.329642,659.275476 564.149863,659.156291 L567.572579,658.658941 L569.103264,655.557434 C569.470078,654.814189 570.529922,654.814189 570.896736,655.557434 L572.427421,658.658941 L575.850137,659.156291 C576.670358,659.275476 576.997868,660.283448 576.404351,660.861984 L573.92765,663.276171 L574.51232,666.685057 C574.65243,667.501963 573.794998,668.124924 573.06137,667.739233 L570,666.129776 L566.93863,667.739233 Z M569.534659,664.114869 C569.825983,663.96171 570.174017,663.96171 570.465341,664.114869 L572.19858,665.026086 L571.867561,663.096096 C571.811923,662.771702 571.919472,662.440702 572.155158,662.210965 L573.557378,660.844138 L571.619557,660.562556 C571.293847,660.515228 571.012282,660.310658 570.86662,660.015515 L570,658.259551 L569.13338,660.015515 C568.987718,660.310658 568.706153,660.515228 568.380443,660.562556 L566.442622,660.844138 L567.844842,662.210965 C568.080528,662.440702 568.188077,662.771702 568.132439,663.096096 L567.80142,665.026086 L569.534659,664.114869 Z M554.526415,668.930216 C553.792787,669.315907 552.935355,668.692946 553.075465,667.87604 L553.547878,665.121662 L551.546706,663.171001 C550.953189,662.592465 551.280699,661.584493 552.100919,661.465308 L554.866471,661.06345 L556.103264,658.557434 C556.470078,657.814189 557.529922,657.814189 557.896736,658.557434 L559.133529,661.06345 L561.899081,661.465308 C562.719301,661.584493 563.046811,662.592465 562.453294,663.171001 L560.452122,665.121662 L560.924535,667.87604 C561.064645,668.692946 560.207213,669.315907 559.473585,668.930216 L557,667.629776 L554.526415,668.930216 Z M556.534659,665.614869 C556.825983,665.46171 557.174017,665.46171 557.465341,665.614869 L558.610795,666.217069 L558.392033,664.941588 C558.336395,664.617193 558.443944,664.286193 558.67963,664.056456 L559.606321,663.153155 L558.325665,662.967065 C557.999955,662.919736 557.718389,662.715167 557.572727,662.420023 L557,661.259551 L556.427273,662.420023 C556.281611,662.715167 556.000045,662.919736 555.674335,662.967065 L554.393679,663.153155 L555.32037,664.056456 C555.556056,664.286193 555.663605,664.617193 555.607967,664.941588 L555.389205,666.217069 L556.534659,665.614869 Z M544.1142,674.121199 C543.380573,674.50689 542.52314,673.883929 542.663251,673.067023 L543.023406,670.967154 L541.497762,669.480018 C540.904245,668.901482 541.231755,667.89351 542.051976,667.774325 L544.160364,667.467958 L545.103264,665.557434 C545.470078,664.814189 546.529922,664.814189 546.896736,665.557434 L547.839636,667.467958 L549.948024,667.774325 C550.768245,667.89351 551.095755,668.901482 550.502238,669.480018 L548.976594,670.967154 L549.336749,673.067023 C549.47686,673.883929 548.619427,674.50689 547.8858,674.121199 L546,673.129776 L544.1142,674.121199 Z M544.97699,671.408052 L545.534659,671.114869 C545.825983,670.96171 546.174017,670.96171 546.465341,671.114869 L547.02301,671.408052 L546.916505,670.787079 C546.860867,670.462685 546.968415,670.131685 547.204101,669.901948 L547.655265,669.462172 L547.031772,669.371573 C546.706062,669.324245 546.424496,669.119675 546.278834,668.824532 L546,668.259551 L545.721166,668.824532 C545.575504,669.119675 545.293938,669.324245 544.968228,669.371573 L544.344735,669.462172 L544.795899,669.901948 C545.031585,670.131685 545.139133,670.462685 545.083495,670.787079 L544.97699,671.408052 Z M592.1142,674.121199 C591.380573,674.50689 590.52314,673.883929 590.663251,673.067023 L591.023406,670.967154 L589.497762,669.480018 C588.904245,668.901482 589.231755,667.89351 590.051976,667.774325 L592.160364,667.467958 L593.103264,665.557434 C593.470078,664.814189 594.529922,664.814189 594.896736,665.557434 L595.839636,667.467958 L597.948024,667.774325 C598.768245,667.89351 599.095755,668.901482 598.502238,669.480018 L596.976594,670.967154 L597.336749,673.067023 C597.47686,673.883929 596.619427,674.50689 595.8858,674.121199 L594,673.129776 L592.1142,674.121199 Z M593.534659,671.114869 C593.825983,670.96171 594.174017,670.96171 594.465341,671.114869 L595.02301,671.408052 L594.916505,670.787079 C594.860867,670.462685 594.968415,670.131685 595.204101,669.901948 L595.655265,669.462172 L595.031772,669.371573 C594.706062,669.324245 594.424496,669.119675 594.278834,668.824532 L594,668.259551 L593.721166,668.824532 C593.575504,669.119675 593.293938,669.324245 592.968228,669.371573 L592.344735,669.462172 L592.795899,669.901948 C593.031585,670.131685 593.139133,670.462685 593.083495,670.787079 L592.97699,671.408052 L593.534659,671.114869 Z"></path></g></g></svg>