<svg height='300px' width='300px'  fill="#000000" xmlns="http://www.w3.org/2000/svg" xmlns:xlink="http://www.w3.org/1999/xlink" viewBox="0 0 251 251" version="1.1" x="0px" y="0px"><title>IOT-14</title><desc>Created with Sketch.</desc><g stroke="none" stroke-width="1" fill="none" fill-rule="evenodd"><g fill="#000000" fill-rule="nonzero"><path d="M192.49,197.17 L58.49,197.17 C55.9053074,197.17 53.81,195.074693 53.81,192.49 L53.81,58.49 C53.81,55.9053074 55.9053074,53.81 58.49,53.81 L192.49,53.81 C195.074693,53.81 197.17,55.9053074 197.17,58.49 L197.17,192.49 C197.17,195.074693 195.074693,197.17 192.49,197.17 Z M63.12,187.81 L187.81,187.81 L187.81,63.12 L63.12,63.12 L63.12,187.81 Z"></path><path d="M88.35,61.1 C85.7653074,61.1 83.67,59.0046926 83.67,56.42 L83.67,12.94 C83.67,11.56 81.55,10.01 78.67,10.01 C76.0853074,10.01 73.99,7.91469263 73.99,5.33 C73.99,2.74530737 76.0853074,0.65 78.67,0.65 C86.56,0.65 92.98,6.16 92.98,12.94 L92.98,56.42 C92.9801464,58.9852917 90.9151453,61.072593 88.35,61.1 Z"></path><path d="M140.25,61.1 C137.665307,61.1 135.57,59.0046926 135.57,56.42 L135.57,12.94 C135.57,6.16 141.99,0.65 149.89,0.65 C152.474692,0.650000218 154.57,2.74530752 154.57,5.33 C154.57,7.91469248 152.474692,10.0099998 149.89,10.01 C147.05,10.01 144.89,11.55 144.89,12.94 L144.89,56.42 C144.890094,58.9891519 142.819058,61.0780414 140.25,61.1 Z"></path><path d="M114.3,63.12 C111.715307,63.12 109.62,61.0246926 109.62,58.44 L109.62,25.22 C109.62,22.6353074 111.715307,20.54 114.3,20.54 C116.884693,20.54 118.98,22.6353074 118.98,25.22 L118.98,58.44 C118.98,59.6812132 118.48693,60.8715895 117.60926,61.7492597 C116.731589,62.62693 115.541213,63.12 114.3,63.12 Z"></path><path d="M166.2,63.12 C163.615307,63.12 161.52,61.0246926 161.52,58.44 L161.52,25.22 C161.52,22.6353074 163.615307,20.54 166.2,20.54 C168.784693,20.54 170.88,22.6353074 170.88,25.22 L170.88,58.44 C170.88,61.0246926 168.784693,63.12 166.2,63.12 Z"></path><path d="M238,93 L194.51,93 C191.925307,93 189.83,90.9046926 189.83,88.32 C189.83,85.7353074 191.925307,83.64 194.51,83.64 L238,83.64 C239.38,83.64 240.93,81.52 240.93,78.64 C240.93,76.0553074 243.025307,73.96 245.61,73.96 C248.194693,73.96 250.29,76.0553074 250.29,78.64 C250.27,86.6 244.76,93 238,93 Z"></path><path d="M245.59,154.56 C243.005307,154.56 240.91,152.464693 240.91,149.88 C240.91,147.04 239.36,144.88 237.98,144.88 L194.51,144.88 C192.837997,144.88 191.293002,143.987997 190.457001,142.54 C189.620999,141.092003 189.620999,139.307997 190.457001,137.86 C191.293002,136.412003 192.837997,135.52 194.51,135.52 L238,135.52 C244.78,135.52 250.29,141.94 250.29,149.83 C250.303403,151.083328 249.813502,152.289656 248.930038,153.178759 C248.046575,154.067862 246.843388,154.565428 245.59,154.56 Z"></path><path d="M225.71,119 L192.49,119 C189.905307,119 187.81,116.904693 187.81,114.32 C187.81,111.735307 189.905307,109.64 192.49,109.64 L225.71,109.64 C228.294693,109.64 230.39,111.735307 230.39,114.32 C230.39,116.904693 228.294693,119 225.71,119 Z"></path><path d="M225.71,170.88 L192.49,170.88 C189.905307,170.88 187.81,168.784693 187.81,166.2 C187.81,163.615307 189.905307,161.52 192.49,161.52 L225.71,161.52 C228.294693,161.52 230.39,163.615307 230.39,166.2 C230.39,168.784693 228.294693,170.88 225.71,170.88 Z"></path><path d="M172.22,250.27 C164.33,250.27 157.91,244.76 157.91,237.98 L157.91,194.51 C157.91,191.925307 160.005307,189.83 162.59,189.83 C165.174693,189.83 167.27,191.925307 167.27,194.51 L167.27,238 C167.27,239.36 169.44,240.93 172.27,240.93 C174.854693,240.93 176.95,243.025307 176.95,245.61 C176.95,248.194693 174.854693,250.29 172.27,250.29 L172.22,250.27 Z"></path><path d="M101,250.27 C98.4153074,250.27 96.32,248.174693 96.32,245.59 C96.32,243.005307 98.4153074,240.91 101,240.91 C103.84,240.91 106,239.36 106,237.98 L106,194.51 C106,191.925307 108.095307,189.83 110.68,189.83 C113.264693,189.83 115.36,191.925307 115.36,194.51 L115.36,238 C115.36,244.76 108.94,250.27 101,250.27 Z"></path><path d="M136.63,230.38 C135.388787,230.38 134.198411,229.88693 133.32074,229.00926 C132.44307,228.131589 131.95,226.941213 131.95,225.7 L131.95,192.49 C131.95,189.905307 134.045307,187.81 136.63,187.81 C139.214693,187.81 141.31,189.905307 141.31,192.49 L141.31,225.71 C141.304485,228.290787 139.210792,230.380006 136.63,230.38 Z"></path><path d="M84.73,230.38 C83.4887868,230.38 82.2984105,229.88693 81.4207403,229.00926 C80.54307,228.131589 80.05,226.941213 80.05,225.7 L80.05,192.49 C80.05,189.905307 82.1453074,187.81 84.73,187.81 C87.3146926,187.81 89.41,189.905307 89.41,192.49 L89.41,225.71 C89.4044855,228.290787 87.3107924,230.380006 84.73,230.38 Z"></path><path d="M5.34,176.89 C2.75530737,176.89 0.66,174.794693 0.66,172.21 C0.66,164.32 6.17,157.9 12.95,157.9 L56.43,157.9 C59.0146926,157.9 61.11,159.995307 61.11,162.58 C61.11,165.164693 59.0146926,167.26 56.43,167.26 L12.94,167.26 C11.56,167.26 10.01,169.38 10.01,172.26 C9.98264016,174.821254 7.90139418,176.884673 5.34,176.89 Z"></path><path d="M56.42,115.35 L12.94,115.35 C6.16,115.35 0.65,108.93 0.65,101.04 C0.649999859,99.3679969 1.54200279,97.8230023 2.98999989,96.9870008 C4.43799698,96.1509992 6.22200302,96.1509992 7.67000011,96.9870008 C9.11799721,97.8230023 10.0100001,99.3679969 10.01,101.04 C10.01,103.88 11.56,106.04 12.94,106.04 L56.42,106.04 C59.0046926,106.04 61.1,108.135307 61.1,110.72 C61.1,113.304693 59.0046926,115.4 56.42,115.4 L56.42,115.35 Z"></path><path d="M58.44,141.31 L25.22,141.31 C22.6353074,141.31 20.54,139.214693 20.54,136.63 C20.54,134.045307 22.6353074,131.95 25.22,131.95 L58.44,131.95 C61.0246926,131.95 63.12,134.045307 63.12,136.63 C63.12,139.214693 61.0246926,141.31 58.44,141.31 Z"></path><path d="M58.44,89.4 L25.22,89.4 C22.6353074,89.4 20.54,87.3046926 20.54,84.72 C20.54,82.1353074 22.6353074,80.04 25.22,80.04 L58.44,80.04 C61.0246926,80.04 63.12,82.1353074 63.12,84.72 C63.12,87.3046926 61.0246926,89.4 58.44,89.4 Z"></path><path d="M162.58,118.6 C161.263004,118.548562 160.018051,117.985284 159.11,117.03 C153.659391,111.581155 146.952459,107.556308 139.58,105.31 C122.698774,100.07321 104.305623,104.589746 91.77,117.05 C90.8884333,117.984235 89.6685804,118.525255 88.3843442,118.551579 C87.100108,118.577903 85.8591097,118.087325 84.94,117.19 C84.015073,116.281905 83.5023791,115.034649 83.5212721,113.73859 C83.540165,112.442531 84.0889966,111.210749 85.04,110.33 C93.4315988,101.783829 104.37562,96.1995004 116.22,94.42 C135.3,91.58 151.88,96.9 165.83,110.28 C167.133222,111.471383 167.671696,113.285224 167.229657,114.994721 C166.787618,116.704218 165.437387,118.029682 163.72,118.44 C163.343571,118.516257 162.962877,118.569687 162.58,118.6 Z"></path><path d="M126.42,111 C136.632677,111.181577 146.373666,115.331182 153.58,122.57 C154.833321,123.754237 155.348202,125.523683 154.925944,127.195488 C154.503686,128.867293 153.210322,130.180019 151.544975,130.62707 C149.879629,131.074121 148.102729,130.585588 146.9,129.35 C140.597324,123.017485 131.795876,119.830628 122.9,120.66 C115.76375,121.164718 109.050851,124.233472 104,129.3 C102.817346,130.553896 101.049233,131.070486 99.3775337,130.650547 C97.7058348,130.230608 96.3917597,128.939757 95.9420823,127.275811 C95.4924049,125.611865 95.9773889,123.834822 97.21,122.63 C102.184069,117.648632 108.398131,114.085903 115.21,112.31 C118.872882,111.382715 122.642007,110.942256 126.42,111 Z"></path><path d="M125.41,128 C131.506285,127.967352 137.359252,130.389269 141.65,134.72 C142.852199,135.915053 143.325523,137.660694 142.891676,139.299355 C142.457829,140.938017 141.182722,142.220747 139.546676,142.664355 C137.91063,143.107963 136.162199,142.645054 134.96,141.45 C129.726764,136.269441 121.305988,136.242737 116.04,141.39 C115.179252,142.270095 114.019307,142.794747 112.79,142.86 C110.822521,142.954624 109.000779,141.825126 108.210683,140.020777 C107.420587,138.216428 107.826091,136.111653 109.23,134.73 C113.509571,130.418031 119.334823,127.995043 125.41,128 Z"></path><path d="M125.43,144.77 C128.868393,144.764706 131.663148,147.541894 131.679536,150.980252 C131.695924,154.418609 128.927769,157.222311 125.489482,157.249793 C122.051195,157.277275 119.238576,154.51818 119.2,151.08 C119.186692,149.416285 119.83623,147.815712 121.005163,146.631769 C122.174095,145.447827 123.766251,144.77792 125.43,144.77 Z"></path></g></g></svg>