<svg height='300px' width='300px'  fill="#000000" xmlns="http://www.w3.org/2000/svg" xmlns:xlink="http://www.w3.org/1999/xlink" version="1.1" x="0px" y="0px" viewBox="0 0 100 100" style="enable-background:new 0 0 100 100;" xml:space="preserve"><path d="M10.796,12h7.438l2.469,15.696c0,0.001,0,0.001,0,0.001l5.573,39.677c0,0.002,0.002,0.004,0.002,0.007  c0,0.002-0.001,0.004,0,0.007l1.493,9.663c0.075,0.487,0.495,0.847,0.988,0.847h4.993c-1.817,1.171-3.026,3.208-3.026,5.526  c0,3.626,2.95,6.576,6.576,6.576s6.575-2.95,6.575-6.576c0-2.318-1.209-4.355-3.026-5.526H71.12  c-1.817,1.171-3.026,3.208-3.026,5.526c0,3.626,2.949,6.576,6.575,6.576s6.575-2.95,6.575-6.576c0-2.318-1.209-4.355-3.026-5.526  h6.295c0.553,0,1-0.448,1-1s-0.447-1-1-1H29.616l-1.184-7.663h54.447c0.499,0,0.921-0.367,0.99-0.861l5.575-39.695  c0.04-0.287-0.046-0.577-0.235-0.795c-0.19-0.218-0.466-0.344-0.755-0.344H22.546l-2.47-15.696C19.999,10.358,19.58,10,19.088,10  h-8.292c-0.553,0-1,0.448-1,1S10.243,12,10.796,12z M37.302,88c-2.523,0-4.576-2.053-4.576-4.576s2.053-4.575,4.576-4.575  c2.522,0,4.575,2.052,4.575,4.575S39.824,88,37.302,88z M74.669,88c-2.522,0-4.575-2.053-4.575-4.576s2.053-4.575,4.575-4.575  s4.575,2.052,4.575,4.575S77.191,88,74.669,88z M83.999,52.068H71.002l1.156-11.063h13.395L83.999,52.068z M68.992,52.068H56.101  V41.005h14.047L68.992,52.068z M26.426,54.068h13.148l1.59,12.167H28.135L26.426,54.068z M41.591,54.068h12.51v12.167H43.18  L41.591,54.068z M56.101,54.068h12.682l-1.272,12.167h-11.41V54.068z M56.101,39.005V28.541h15.35l-1.094,10.465H56.101z   M54.101,39.005H39.623l-1.367-10.465h15.845V39.005z M54.101,41.005v11.063H41.329l-1.445-11.063H54.101z M39.313,52.068H26.145  l-1.554-11.063h13.276L39.313,52.068z M82.01,66.235H69.521l1.272-12.167h12.926L82.01,66.235z M85.834,39.005H72.367l1.094-10.465  h13.843L85.834,39.005z M36.239,28.541l1.367,10.465H24.311l-1.47-10.465H36.239z"></path></svg>