<?xml version="1.0" encoding="utf-8"?>
<!-- Generator: Adobe Illustrator 16.0.0, SVG Export Plug-In . SVG Version: 6.00 Build 0)  -->
<!DOCTYPE svg PUBLIC "-//W3C//DTD SVG 1.1//EN" "http://www.w3.org/Graphics/SVG/1.1/DTD/svg11.dtd">
<svg version="1.1" id="Layer_1" xmlns="http://www.w3.org/2000/svg" xmlns:xlink="http://www.w3.org/1999/xlink" x="0px" y="0px"
	 width="300px" height="300px" viewBox="0 0 300 300" enable-background="new 0 0 300 300" xml:space="preserve">
<g>
	<g>
		<circle opacity="0.8" fill="#575757" cx="149.796" cy="149.656" r="128.363"/>
		<g>
			<path fill="#FDB62B" d="M150.098,270.427c-66.596,0-120.772-54.179-120.772-120.774c0-66.593,54.176-120.774,120.772-120.774
				c66.595,0,120.77,54.182,120.77,120.774C270.867,216.248,216.692,270.427,150.098,270.427L150.098,270.427z M150.098,32.272
				c-64.721,0-117.384,52.657-117.384,117.38c0,64.721,52.663,117.375,117.384,117.375c64.721,0,117.374-52.654,117.374-117.375
				C267.472,84.93,214.818,32.272,150.098,32.272L150.098,32.272z"/>
		</g>
		<g>
			<g>
				<polygon fill="#FDB62B" points="149.991,51.313 152.635,56.67 158.548,57.527 154.271,61.699 155.279,67.593 149.991,64.81 
					144.699,67.593 145.711,61.699 141.433,57.527 147.346,56.67 				"/>
				<polygon fill="#FDB62B" points="170.839,54.365 172.296,58.269 176.336,59.284 173.07,61.877 173.356,66.034 169.883,63.732 
					166.015,65.284 167.133,61.27 164.459,58.073 168.624,57.896 				"/>
				<polygon fill="#FDB62B" points="128.815,54.365 127.361,58.269 123.317,59.284 126.582,61.877 126.3,66.034 129.771,63.732 
					133.64,65.284 132.522,61.27 135.193,58.073 131.032,57.896 				"/>
			</g>
		</g>
		<polygon fill="#FDB62B" points="149.991,242.738 152.635,248.093 158.548,248.952 154.271,253.124 155.279,259.019 
			149.991,256.234 144.699,259.019 145.711,253.124 141.433,248.952 147.346,248.093 		"/>
		<polygon fill="#FDB62B" points="128.595,244.001 130.047,247.905 134.092,248.921 130.827,251.514 131.109,255.67 
			127.638,253.368 123.77,254.921 124.887,250.905 122.216,247.709 126.377,247.532 		"/>
		<polygon fill="#FDB62B" points="172.893,243.991 171.439,247.895 167.395,248.911 170.662,251.504 170.377,255.662 
			173.849,253.358 177.717,254.914 176.6,250.896 179.272,247.7 175.109,247.523 		"/>
		<g>
			<g>
				<g>
					<g>
						<path fill="#FDB62B" d="M124.096,178.091c0.403,0.356,0.761,0.79,1.113,1.214c0.207,0.25,0.412,0.496,0.62,0.72
							c-0.183,0.282-0.358,0.594-0.533,0.911c-0.418,0.756-0.848,1.521-1.481,2.049c0.826,0.216,1.543,0.794,2.241,1.359
							c0.251,0.206,0.498,0.405,0.745,0.582c-0.126,0.313-0.235,0.653-0.344,1.002c-0.262,0.82-0.532,1.66-1.051,2.295
							c0.851,0.051,1.666,0.485,2.459,0.899c0.286,0.15,0.569,0.298,0.846,0.429c-0.062,0.33-0.102,0.687-0.142,1.047
							c-0.1,0.852-0.2,1.731-0.584,2.458c0.843-0.119,1.726,0.144,2.584,0.403c0.315,0.091,0.619,0.18,0.913,0.255
							c0.008,0.335,0.038,0.688,0.065,1.05c0.072,0.857,0.146,1.739-0.09,2.523c0.802-0.28,1.722-0.192,2.615-0.112
							c0.321,0.032,0.639,0.063,0.942,0.073c0.072,0.332,0.169,0.671,0.268,1.021c0.242,0.829,0.483,1.679,0.407,2.496
							c0.732-0.432,1.65-0.528,2.544-0.619c0.319-0.038,0.637-0.07,0.938-0.119c0.134,0.314,0.296,0.627,0.464,0.947
							c0.393,0.771,0.799,1.556,0.878,2.373c0.638-0.563,1.52-0.84,2.375-1.104c0.309-0.098,0.612-0.19,0.9-0.3
							c0.189,0.281,0.414,0.561,0.637,0.847c0.534,0.67,1.086,1.367,1.329,2.149c0.511-0.682,1.325-1.12,2.112-1.548
							c0.284-0.151,0.564-0.306,0.823-0.466c0.246,0.237,0.515,0.466,0.793,0.701c0.657,0.561,1.332,1.132,1.723,1.852
							c0.37-0.769,1.077-1.354,1.768-1.928c0.249-0.211,0.494-0.411,0.718-0.62c0.281,0.187,0.595,0.361,0.909,0.533
							c0.757,0.419,1.529,0.846,2.048,1.478c0.217-0.822,0.801-1.538,1.367-2.235c0.199-0.251,0.403-0.501,0.585-0.744
							c0.308,0.123,0.646,0.233,0.993,0.343c0.821,0.265,1.664,0.535,2.296,1.052c0.054-0.851,0.485-1.666,0.902-2.461
							c0.151-0.286,0.301-0.569,0.427-0.842c0.33,0.06,0.686,0.1,1.041,0.144c0.859,0.095,1.739,0.194,2.462,0.583
							c-0.118-0.846,0.146-1.732,0.402-2.593c0.094-0.306,0.185-0.61,0.253-0.912c0.337-0.004,0.694-0.035,1.055-0.063
							c0.856-0.072,1.742-0.142,2.525,0.093c-0.28-0.804-0.194-1.722-0.113-2.618c0.032-0.329,0.063-0.659,0.076-0.969
							c0.302-0.074,0.616-0.165,0.94-0.258c0.858-0.263,1.742-0.525,2.585-0.406c-0.381-0.727-0.482-1.606-0.582-2.458
							c-0.041-0.36-0.08-0.715-0.143-1.047c0.277-0.131,0.559-0.278,0.842-0.429c0.796-0.414,1.614-0.849,2.464-0.899
							c-0.519-0.635-0.789-1.475-1.053-2.295c-0.109-0.349-0.219-0.689-0.343-1.002c0.243-0.177,0.496-0.376,0.745-0.582
							c0.696-0.565,1.41-1.144,2.234-1.359c-0.628-0.52-1.061-1.293-1.477-2.049c-0.176-0.317-0.349-0.629-0.533-0.911
							c0.209-0.224,0.412-0.47,0.621-0.72c0.35-0.424,0.709-0.857,1.111-1.214h60.741l-55.739,6.386l12.987,12.301l-17.894-0.499
							l7.325,16.333l-16.357-7.3l0.498,17.89l-12.293-13.009l-6.38,16.724l-6.381-16.722l-12.303,13.007l0.487-17.89l-16.323,7.3
							l7.295-16.333l-17.877,0.499l12.997-12.301l-56.194-6.386H124.096z"/>
						<path fill="#FDB62B" d="M132.739,178.091h36.948c-0.288,9.962-8.443,17.944-18.473,17.944
							C141.187,196.035,133.026,188.053,132.739,178.091z"/>
					</g>
				</g>
			</g>
		</g>
	</g>
	<g>
		<path fill="#FFFFFF" d="M78.01,95.88h2.955l4.477,11.282l4.521-11.282h3l-5.551,13.565l6.088,14.371l11.505-28.159h3.402
			l-13.475,31.785h-2.776l-6.67-15.713l-6.715,15.713H76.04L62.609,95.656h3.358l11.55,28.159l6.044-14.371L78.01,95.88z"/>
		<path fill="#FFFFFF" d="M134.238,124.666v2.775h-21.354V95.656h20.952v2.775h-17.818v11.46h15.535v2.642h-15.535v12.132H134.238z"
			/>
		<path fill="#FFFFFF" d="M160.023,95.656h2.643l13.207,31.785h-3.314l-4.117-9.938H154.16l-4.074,9.938h-3.358L160.023,95.656z
			 M167.725,115.041l-6.402-15.713l-6.49,15.713H167.725z"/>
		<path fill="#FFFFFF" d="M180.438,127.441V95.656h13.431c1.372,0,2.634,0.291,3.782,0.873c1.149,0.582,2.142,1.343,2.978,2.283
			c0.835,0.94,1.484,2.008,1.947,3.201c0.463,1.194,0.694,2.403,0.694,3.626c0,1.164-0.173,2.276-0.516,3.335
			c-0.343,1.06-0.82,2.015-1.432,2.865c-0.612,0.851-1.352,1.567-2.217,2.149s-1.835,0.978-2.909,1.186l7.789,12.267h-3.536
			l-7.477-11.729h-9.401v11.729H180.438z M183.572,112.937h10.386c0.925,0,1.769-0.202,2.53-0.604
			c0.761-0.403,1.41-0.947,1.947-1.634c0.537-0.687,0.954-1.462,1.253-2.328c0.298-0.865,0.448-1.775,0.448-2.731
			c0-0.955-0.173-1.873-0.515-2.753c-0.344-0.88-0.807-1.649-1.389-2.306c-0.582-0.656-1.269-1.179-2.059-1.567
			c-0.791-0.388-1.62-0.582-2.485-0.582h-10.117V112.937z"/>
		<path fill="#FFFFFF" d="M231.026,124.666v2.775h-21.354V95.656h20.951v2.775h-17.817v11.46h15.534v2.642h-15.534v12.132H231.026z"
			/>
		<path fill="#FFFFFF" d="M101.066,137.626v31.785h-6.133v-13.565H80.517v13.565h-6.178v-31.785h6.178v12.848h14.416v-12.848
			H101.066z"/>
		<path fill="#FFFFFF" d="M107.691,169.411v-31.785h6.178v31.785H107.691z"/>
		<path fill="#FFFFFF" d="M120.495,169.411v-31.785h14.057c1.462,0,2.813,0.306,4.051,0.917c1.238,0.612,2.306,1.418,3.201,2.417
			c0.895,1,1.596,2.134,2.104,3.402c0.507,1.269,0.761,2.545,0.761,3.828c0,2.06-0.515,3.932-1.545,5.619
			c-1.029,1.687-2.425,2.903-4.186,3.648l7.252,11.953h-6.939l-6.492-10.655h-6.088v10.655H120.495z M126.672,153.34h7.745
			c0.566,0,1.097-0.135,1.589-0.403c0.492-0.269,0.917-0.634,1.276-1.097c0.358-0.463,0.641-1.007,0.851-1.634
			c0.208-0.626,0.313-1.298,0.313-2.015c0-0.746-0.12-1.433-0.358-2.059c-0.239-0.627-0.56-1.171-0.962-1.634
			c-0.403-0.462-0.866-0.82-1.388-1.074c-0.522-0.253-1.052-0.38-1.589-0.38h-7.477V153.34z"/>
		<path fill="#FFFFFF" d="M150.265,169.411v-31.785h6.178v31.785H150.265z"/>
		<path fill="#FFFFFF" d="M169.247,149.042v20.37h-6.179v-31.785h4.79l16.564,20.862V137.67h6.178v31.741h-5.014L169.247,149.042z"
			/>
		<path fill="#FFFFFF" d="M219.297,165.83c-2.537,2.537-5.492,3.805-8.864,3.805c-2.09,0-4.052-0.418-5.887-1.254
			c-1.836-0.834-3.433-1.984-4.791-3.447c-1.358-1.461-2.433-3.185-3.223-5.17c-0.791-1.984-1.187-4.125-1.187-6.424
			c0-2.179,0.396-4.231,1.187-6.156c0.79-1.925,1.88-3.611,3.268-5.059c1.388-1.447,3.022-2.597,4.902-3.447
			s3.924-1.276,6.133-1.276c2.984,0,5.544,0.627,7.678,1.88s3.738,2.94,4.813,5.059l-4.611,3.402
			c-0.806-1.582-1.933-2.79-3.38-3.626c-1.448-0.835-3.022-1.253-4.724-1.253c-1.343,0-2.574,0.284-3.693,0.851
			c-1.119,0.567-2.074,1.343-2.865,2.328s-1.403,2.12-1.835,3.402c-0.434,1.284-0.649,2.642-0.649,4.074
			c0,1.493,0.238,2.888,0.717,4.186c0.477,1.298,1.134,2.425,1.97,3.38c0.835,0.955,1.827,1.709,2.977,2.262
			c1.148,0.552,2.396,0.828,3.738,0.828c3.073,0,5.85-1.447,8.327-4.344v-2.238h-6.402v-4.521H224.4v16.341h-5.104V165.83z"/>
	</g>
	<g>
		
			<circle fill="none" stroke="#ffffff" stroke-width="15" stroke-miterlimit="10" stroke-dasharray="74.6224,26.3657" cx="150.533" cy="150.393" r="144.649">
			<animateTransform attributeName="transform" type="rotate"
        from="0 150 150" to="360 150 150" dur="15s" repeatDur="indefinite"/>
</circle>
	</g>
</g>
</svg>
